<svg id="Layer_1" data-name="Layer 1" xmlns="http://www.w3.org/2000/svg" viewBox="0 0 1008 260"><title>modem_logo</title><path d="M770.93,171.17l77.49.27v53.19h15.93V104.75h77.49V224.63h15.93V88.82H848.42v66.69L755,155.24v69.39h15.93ZM619.44,105.29h92.88v38.88H619.44ZM728.25,209H619.44V160.1H728.25V89.36H603.51V224.9H728.25Zm-162,19.17a8.3,8.3,0,0,0,8.1-8.1,8.07,8.07,0,0,0-8.1-7.83,7.84,7.84,0,0,0-7.83,7.83,8.07,8.07,0,0,0,7.83,8.1m-43.2,0a8.3,8.3,0,0,0,8.1-8.1,8.07,8.07,0,0,0-8.1-7.83,7.84,7.84,0,0,0-7.83,7.83,8.07,8.07,0,0,0,7.83,8.1m-43.2,0A8.3,8.3,0,0,0,488,220a8.07,8.07,0,0,0-8.1-7.83,7.84,7.84,0,0,0-7.83,7.83,8.07,8.07,0,0,0,7.83,8.1m64.8-10.8a8.3,8.3,0,0,0,8.1-8.1,8.07,8.07,0,0,0-8.1-7.83,7.84,7.84,0,0,0-7.83,7.83,8.07,8.07,0,0,0,7.83,8.1m-86.4,0a8.3,8.3,0,0,0,8.1-8.1,8.07,8.07,0,0,0-8.1-7.83,7.84,7.84,0,0,0-7.83,7.83,8.07,8.07,0,0,0,7.83,8.1m43.2,0a8.3,8.3,0,0,0,8.1-8.1,8.07,8.07,0,0,0-8.1-7.83,7.84,7.84,0,0,0-7.83,7.83,8.07,8.07,0,0,0,7.83,8.1m21.6-10.8a8.3,8.3,0,0,0,8.1-8.1,8.07,8.07,0,0,0-8.1-7.83,7.84,7.84,0,0,0-7.83,7.83,8.07,8.07,0,0,0,7.83,8.1m43.2,0a8.3,8.3,0,0,0,8.1-8.1,8.07,8.07,0,0,0-8.1-7.83,7.84,7.84,0,0,0-7.83,7.83,8.07,8.07,0,0,0,7.83,8.1m-86.4,0a8.3,8.3,0,0,0,8.1-8.1,8.07,8.07,0,0,0-8.1-7.83,7.84,7.84,0,0,0-7.83,7.83,8.07,8.07,0,0,0,7.83,8.1m21.6-10.8a8.3,8.3,0,0,0,8.1-8.1,8.07,8.07,0,0,0-8.1-7.83,7.84,7.84,0,0,0-7.83,7.83,8.07,8.07,0,0,0,7.83,8.1m-43.2,0a8.3,8.3,0,0,0,8.1-8.1,8.07,8.07,0,0,0-8.1-7.83,7.84,7.84,0,0,0-7.83,7.83,8.07,8.07,0,0,0,7.83,8.1m86.4,0a8.3,8.3,0,0,0,8.1-8.1,8.07,8.07,0,0,0-8.1-7.83,7.84,7.84,0,0,0-7.83,7.83,8.07,8.07,0,0,0,7.83,8.1m21.6-10.8a8.3,8.3,0,0,0,8.1-8.1,8.07,8.07,0,0,0-8.1-7.83,7.84,7.84,0,0,0-7.83,7.83,8.07,8.07,0,0,0,7.83,8.1m-129.6,0a8.3,8.3,0,0,0,8.1-8.1,8.07,8.07,0,0,0-8.1-7.83,7.84,7.84,0,0,0-7.83,7.83,8.07,8.07,0,0,0,7.83,8.1m86.4,0a8.3,8.3,0,0,0,8.1-8.1,8.07,8.07,0,0,0-8.1-7.83,7.84,7.84,0,0,0-7.83,7.83,8.07,8.07,0,0,0,7.83,8.1m-43.2,0a8.3,8.3,0,0,0,8.1-8.1,8.07,8.07,0,0,0-8.1-7.83,7.84,7.84,0,0,0-7.83,7.83,8.07,8.07,0,0,0,7.83,8.1m64.8-10.8a8.3,8.3,0,0,0,8.1-8.1,8.07,8.07,0,0,0-8.1-7.83,7.84,7.84,0,0,0-7.83,7.83,8.07,8.07,0,0,0,7.83,8.1m-43.2,0a8.3,8.3,0,0,0,8.1-8.1,8.07,8.07,0,0,0-8.1-7.83,7.84,7.84,0,0,0-7.83,7.83,8.07,8.07,0,0,0,7.83,8.1m-43.2,0a8.3,8.3,0,0,0,8.1-8.1,8.07,8.07,0,0,0-8.1-7.83,7.84,7.84,0,0,0-7.83,7.83,8.07,8.07,0,0,0,7.83,8.1m-21.6-10.8a8.3,8.3,0,0,0,8.1-8.1,8.07,8.07,0,0,0-8.1-7.83,7.84,7.84,0,0,0-7.83,7.83,8.07,8.07,0,0,0,7.83,8.1m129.6,0a8.3,8.3,0,0,0,8.1-8.1,8.07,8.07,0,0,0-8.1-7.83,7.84,7.84,0,0,0-7.83,7.83,8.07,8.07,0,0,0,7.83,8.1m-86.4,0a8.3,8.3,0,0,0,8.1-8.1,8.07,8.07,0,0,0-8.1-7.83,7.84,7.84,0,0,0-7.83,7.83,8.07,8.07,0,0,0,7.83,8.1m43.2,0a8.3,8.3,0,0,0,8.1-8.1,8.07,8.07,0,0,0-8.1-7.83,7.84,7.84,0,0,0-7.83,7.83,8.07,8.07,0,0,0,7.83,8.1m-64.8-10.8a8.3,8.3,0,0,0,8.1-8.1,8.07,8.07,0,0,0-8.1-7.83,7.84,7.84,0,0,0-7.83,7.83,8.07,8.07,0,0,0,7.83,8.1m86.4,0a8.3,8.3,0,0,0,8.1-8.1,8.07,8.07,0,0,0-8.1-7.83,7.84,7.84,0,0,0-7.83,7.83,8.07,8.07,0,0,0,7.83,8.1m-43.2,0a8.3,8.3,0,0,0,8.1-8.1,8.07,8.07,0,0,0-8.1-7.83,7.84,7.84,0,0,0-7.83,7.83,8.07,8.07,0,0,0,7.83,8.1m-64.8-10.8a8.3,8.3,0,0,0,8.1-8.1,8.07,8.07,0,0,0-8.1-7.83,7.84,7.84,0,0,0-7.83,7.83,8.07,8.07,0,0,0,7.83,8.1m86.4,0a8.3,8.3,0,0,0,8.1-8.1,8.07,8.07,0,0,0-8.1-7.83,7.84,7.84,0,0,0-7.83,7.83,8.07,8.07,0,0,0,7.83,8.1m-43.2,0a8.3,8.3,0,0,0,8.1-8.1,8.07,8.07,0,0,0-8.1-7.83,7.84,7.84,0,0,0-7.83,7.83,8.07,8.07,0,0,0,7.83,8.1m86.4,0a8.3,8.3,0,0,0,8.1-8.1,8.07,8.07,0,0,0-8.1-7.83,7.84,7.84,0,0,0-7.83,7.83,8.07,8.07,0,0,0,7.83,8.1m-64.8-10.8a8.3,8.3,0,0,0,8.1-8.1,8.07,8.07,0,0,0-8.1-7.83,7.84,7.84,0,0,0-7.83,7.83,8.07,8.07,0,0,0,7.83,8.1m43.2,0a8.3,8.3,0,0,0,8.1-8.1,8.07,8.07,0,0,0-8.1-7.83,7.84,7.84,0,0,0-7.83,7.83,8.07,8.07,0,0,0,7.83,8.1m-86.4,0a8.3,8.3,0,0,0,8.1-8.1,8.07,8.07,0,0,0-8.1-7.83,7.84,7.84,0,0,0-7.83,7.83,8.07,8.07,0,0,0,7.83,8.1m64.8-10.8a8.3,8.3,0,0,0,8.1-8.1,8.07,8.07,0,0,0-8.1-7.83,7.84,7.84,0,0,0-7.83,7.83,8.07,8.07,0,0,0,7.83,8.1m-43.2,0A8.3,8.3,0,0,0,488,112a8.07,8.07,0,0,0-8.1-7.83,7.84,7.84,0,0,0-7.83,7.83,8.07,8.07,0,0,0,7.83,8.1m86.4,0a8.3,8.3,0,0,0,8.1-8.1,8.07,8.07,0,0,0-8.1-7.83,7.84,7.84,0,0,0-7.83,7.83,8.07,8.07,0,0,0,7.83,8.1m-64.8-10.8a8.3,8.3,0,0,0,8.1-8.1,8.07,8.07,0,0,0-8.1-7.83,7.84,7.84,0,0,0-7.83,7.83,8.07,8.07,0,0,0,7.83,8.1m-43.2,0a8.3,8.3,0,0,0,8.1-8.1,8.07,8.07,0,0,0-8.1-7.83,7.84,7.84,0,0,0-7.83,7.83,8.07,8.07,0,0,0,7.83,8.1m86.4,0a8.3,8.3,0,0,0,8.1-8.1,8.07,8.07,0,0,0-8.1-7.83,7.84,7.84,0,0,0-7.83,7.83,8.07,8.07,0,0,0,7.83,8.1m21.6-10.8a8.3,8.3,0,0,0,8.1-8.1,8.07,8.07,0,0,0-8.1-7.83,7.84,7.84,0,0,0-7.83,7.83,8.07,8.07,0,0,0,7.83,8.1m-86.4,0a8.3,8.3,0,0,0,8.1-8.1,8.07,8.07,0,0,0-8.1-7.83,7.84,7.84,0,0,0-7.83,7.83,8.07,8.07,0,0,0,7.83,8.1m43.2,0a8.3,8.3,0,0,0,8.1-8.1,8.07,8.07,0,0,0-8.1-7.83,7.84,7.84,0,0,0-7.83,7.83,8.07,8.07,0,0,0,7.83,8.1m43.2-21.6a8.3,8.3,0,0,0,8.1-8.1A8.07,8.07,0,0,0,566.3,61a7.84,7.84,0,0,0-7.83,7.83,8.07,8.07,0,0,0,7.83,8.1m0-21.6a8.3,8.3,0,0,0,8.1-8.1,8.07,8.07,0,0,0-8.1-7.83,7.84,7.84,0,0,0-7.83,7.83,8.07,8.07,0,0,0,7.83,8.1M296.06,127.16l48.6-28.08L393,127.16v56.43l-48.6,28.08-48.33-28.08ZM280.13,118v74.79L344.39,230l64.53-37.26V118L344.66,80.72Zm-26.86,66.69L242.2,173.33l-39.69,39.42,11.34,11.34Zm.54-45.36L242.47,128l-84.78,84.78L169,223.82ZM149.59,108,138.52,96.92,50.23,185.21,61.3,196.28Zm92.07-1.89L230.59,95,112.33,213l11.07,11.34ZM127.18,85.58,115.84,74.24,50.23,139.85l11.34,11.34ZM219,84,207.64,72.62,67.24,213l11.34,11.34Z"/></svg>