<?xml version="1.0" encoding="utf-8"?>
<!-- Generator: Adobe Illustrator 23.0.1, SVG Export Plug-In . SVG Version: 6.00 Build 0)  -->
<svg version="1.1" id="Layer_1" xmlns="http://www.w3.org/2000/svg" xmlns:xlink="http://www.w3.org/1999/xlink" x="0px" y="0px"
	 viewBox="0 0 1008 260" style="enable-background:new 0 0 1008 260;" xml:space="preserve">
<title>modem_logo</title>
<path d="M766.8,224.6V165c0-40.8,26.7-64.8,49.1-64.8c28.1,0,28.3,24.3,28.3,27.5v96.9h15.9V162c1.3-38.9,27.3-61.8,49.1-61.8
	c28.1,0,28.3,24.3,28.3,27.5v96.9h15.9v-99.9c0-5.1-0.3-39.7-42.4-39.7c-21.3,0-38.6,13.8-48.9,32.7h-2.7
	c-1.6-11.6-8.9-32.7-41.8-32.7c-21.3,0-38.6,13.8-48.9,32.7h-2.2v-30h-15.9v137H766.8z M699.6,217.1l-11.1-11.3l-11.1,10.8
	l11.3,11.3L699.6,217.1z M654.5,217.1l-11.1-11.3l-11.1,10.8l11.3,11.3L654.5,217.1z M628.4,198.2l-11.1-11.3l-11.1,11.1l11.3,11.1
	L628.4,198.2z M728,143.6l-11.1-11.3l-21.9,21.6l11.3,11.3L728,143.6z M713.7,112.8l-11.3-11.1L652.1,152l11.3,11.1L713.7,112.8z
	 M687.5,94l-11.3-11.1l-84.2,84.2l11.1,11.3L687.5,94z M642.9,93.7l-11.3-11.4l-34.8,34.8l11.3,11.3L642.9,93.7z M564.8,228.1
	c4.4-0.1,8-3.7,8.1-8.1c-0.1-4.4-3.7-7.8-8.1-7.8c-4.3,0-7.8,3.5-7.8,7.8C556.9,224.4,560.4,228,564.8,228.1 M521.5,228.1
	c4.4-0.1,8-3.7,8.1-8.1c-0.1-4.4-3.7-7.8-8.1-7.8c-4.3,0-7.8,3.5-7.8,7.8C513.7,224.4,517.2,228,521.5,228.1 M478.3,228.1
	c4.4-0.1,8-3.7,8.1-8.1c-0.1-4.4-3.7-7.8-8.1-7.8c-4.3,0-7.8,3.5-7.8,7.8C470.5,224.4,474,228,478.3,228.1 M543.1,217.3
	c4.4-0.1,8-3.7,8.1-8.1c-0.1-4.4-3.7-7.8-8.1-7.8c-4.3,0-7.8,3.5-7.8,7.8C535.3,213.6,538.8,217.2,543.1,217.3 M456.7,217.3
	c4.4-0.1,8-3.7,8.1-8.1c-0.1-4.4-3.7-7.8-8.1-7.8c-4.3,0-7.8,3.5-7.8,7.8C448.9,213.6,452.4,217.2,456.7,217.3 M499.9,217.3
	c4.4-0.1,8-3.7,8.1-8.1c-0.1-4.4-3.7-7.8-8.1-7.8c-4.3,0-7.8,3.5-7.8,7.8C492.1,213.6,495.6,217.2,499.9,217.3 M521.5,206.5
	c4.4-0.1,8-3.7,8.1-8.1c-0.1-4.4-3.7-7.8-8.1-7.8c-4.3,0-7.8,3.5-7.8,7.8C513.7,202.8,517.2,206.4,521.5,206.5 M564.8,206.5
	c4.4-0.1,8-3.7,8.1-8.1c-0.1-4.4-3.7-7.8-8.1-7.8c-4.3,0-7.8,3.5-7.8,7.8C556.9,202.8,560.4,206.4,564.8,206.5 M478.4,206.5
	c4.4-0.1,8-3.7,8.1-8.1c-0.1-4.4-3.7-7.8-8.1-7.8c-4.3,0-7.8,3.5-7.8,7.8C470.5,202.8,474,206.4,478.4,206.5 M500,195.7
	c4.4-0.1,8-3.7,8.1-8.1c-0.1-4.4-3.7-7.8-8.1-7.8c-4.3,0-7.8,3.5-7.8,7.8C492.1,192,495.6,195.6,500,195.7 M456.8,195.7
	c4.4-0.1,8-3.7,8.1-8.1c-0.1-4.4-3.7-7.8-8.1-7.8c-4.3,0-7.8,3.5-7.8,7.8C448.9,192,452.4,195.6,456.8,195.7 M543.2,195.7
	c4.4-0.1,8-3.7,8.1-8.1c-0.1-4.4-3.7-7.8-8.1-7.8c-4.3,0-7.8,3.5-7.8,7.8C535.3,192,538.8,195.6,543.2,195.7 M564.8,184.9
	c4.4-0.1,8-3.7,8.1-8.1c-0.1-4.4-3.7-7.8-8.1-7.8c-4.3,0-7.8,3.5-7.8,7.8C556.9,181.2,560.4,184.8,564.8,184.9 M435.1,184.9
	c4.4-0.1,8-3.7,8.1-8.1c-0.1-4.4-3.7-7.8-8.1-7.8c-4.3,0-7.8,3.5-7.8,7.8C427.3,181.2,430.8,184.8,435.1,184.9 M521.5,184.9
	c4.4-0.1,8-3.7,8.1-8.1c-0.1-4.4-3.7-7.8-8.1-7.8c-4.3,0-7.8,3.5-7.8,7.8C513.7,181.2,517.2,184.8,521.5,184.9 M478.3,184.9
	c4.4-0.1,8-3.7,8.1-8.1c-0.1-4.4-3.7-7.8-8.1-7.8c-4.3,0-7.8,3.5-7.8,7.8C470.5,181.2,474,184.8,478.3,184.9 M543.1,174.1
	c4.4-0.1,8-3.7,8.1-8.1c-0.1-4.4-3.7-7.8-8.1-7.8c-4.3,0-7.8,3.5-7.8,7.8C535.3,170.4,538.8,174,543.1,174.1 M499.9,174.1
	c4.4-0.1,8-3.7,8.1-8.1c-0.1-4.4-3.7-7.8-8.1-7.8c-4.3,0-7.8,3.5-7.8,7.8C492.1,170.4,495.6,174,499.9,174.1 M456.7,174.1
	c4.4-0.1,8-3.7,8.1-8.1c-0.1-4.4-3.7-7.8-8.1-7.8c-4.3,0-7.8,3.5-7.8,7.8C448.9,170.4,452.4,174,456.7,174.1 M435.1,163.3
	c4.4-0.1,8-3.7,8.1-8.1c-0.1-4.4-3.7-7.8-8.1-7.8c-4.3,0-7.8,3.5-7.8,7.8C427.3,159.6,430.8,163.2,435.1,163.3 M564.7,163.3
	c4.4-0.1,8-3.7,8.1-8.1c-0.1-4.4-3.7-7.8-8.1-7.8c-4.3,0-7.8,3.5-7.8,7.8C556.9,159.6,560.4,163.2,564.7,163.3 M478.3,163.3
	c4.4-0.1,8-3.7,8.1-8.1c-0.1-4.4-3.7-7.8-8.1-7.8c-4.3,0-7.8,3.5-7.8,7.8C470.5,159.6,474,163.2,478.3,163.3 M521.5,163.3
	c4.4-0.1,8-3.7,8.1-8.1c-0.1-4.4-3.7-7.8-8.1-7.8c-4.3,0-7.8,3.5-7.8,7.8C513.7,159.6,517.2,163.2,521.5,163.3 M456.7,152.5
	c4.4-0.1,8-3.7,8.1-8.1c-0.1-4.4-3.7-7.8-8.1-7.8c-4.3,0-7.8,3.5-7.8,7.8C448.9,148.8,452.4,152.4,456.7,152.5 M543.1,152.5
	c4.4-0.1,8-3.7,8.1-8.1c-0.1-4.4-3.7-7.8-8.1-7.8c-4.3,0-7.8,3.5-7.8,7.8C535.3,148.8,538.8,152.4,543.1,152.5 M499.9,152.5
	c4.4-0.1,8-3.7,8.1-8.1c-0.1-4.4-3.7-7.8-8.1-7.8c-4.3,0-7.8,3.5-7.8,7.8C492.1,148.8,495.6,152.4,499.9,152.5 M435.1,141.7
	c4.4-0.1,8-3.7,8.1-8.1c-0.1-4.4-3.7-7.8-8.1-7.8c-4.3,0-7.8,3.5-7.8,7.8C427.3,138,430.8,141.6,435.1,141.7 M521.5,141.7
	c4.4-0.1,8-3.7,8.1-8.1c-0.1-4.4-3.7-7.8-8.1-7.8c-4.3,0-7.8,3.5-7.8,7.8C513.7,138,517.2,141.6,521.5,141.7 M478.3,141.7
	c4.4-0.1,8-3.7,8.1-8.1c-0.1-4.4-3.7-7.8-8.1-7.8c-4.3,0-7.8,3.5-7.8,7.8C470.5,138,474,141.6,478.3,141.7 M564.8,141.7
	c4.4-0.1,8-3.7,8.1-8.1c-0.1-4.4-3.7-7.8-8.1-7.8c-4.3,0-7.8,3.5-7.8,7.8C556.9,138,560.4,141.6,564.8,141.7 M500,130.9
	c4.4-0.1,8-3.7,8.1-8.1c-0.1-4.4-3.7-7.9-8.1-7.8c-4.3,0-7.8,3.5-7.8,7.8C492.2,127.2,495.6,130.8,500,130.9 M543.2,130.9
	c4.4-0.1,8-3.7,8.1-8.1c-0.1-4.4-3.7-7.8-8.1-7.8c-4.3,0-7.8,3.5-7.8,7.8C535.4,127.2,538.8,130.8,543.2,130.9 M456.8,130.9
	c4.4-0.1,8-3.7,8.1-8.1c-0.1-4.4-3.7-7.8-8.1-7.8c-4.3,0-7.8,3.5-7.8,7.8C449,127.2,452.4,130.8,456.8,130.9 M521.6,120.1
	c4.4-0.1,8-3.7,8.1-8.1c-0.1-4.4-3.7-7.8-8.1-7.8c-4.3,0-7.8,3.5-7.8,7.8C513.8,116.4,517.2,120,521.6,120.1 M478.4,120.1
	c4.4-0.1,8-3.7,8.1-8.1c-0.1-4.4-3.7-7.8-8.1-7.8c-4.3,0-7.8,3.5-7.8,7.8C470.6,116.4,474,120,478.4,120.1 M564.8,120.1
	c4.4-0.1,8-3.7,8.1-8.1c-0.1-4.4-3.7-7.8-8.1-7.8c-4.3,0-7.8,3.5-7.8,7.8C557,116.4,560.4,120,564.8,120.1 M500,109.3
	c4.4-0.1,8-3.7,8.1-8.1c-0.1-4.4-3.7-7.8-8.1-7.8c-4.3,0-7.8,3.5-7.8,7.8C492.2,105.6,495.6,109.2,500,109.3 M456.8,109.3
	c4.4-0.1,8-3.7,8.1-8.1c-0.1-4.4-3.7-7.8-8.1-7.8c-4.3,0-7.8,3.5-7.8,7.8C449,105.6,452.4,109.2,456.8,109.3 M543.2,109.3
	c4.4-0.1,8-3.7,8.1-8.1c-0.1-4.4-3.7-7.8-8.1-7.8c-4.3,0-7.8,3.5-7.8,7.8C535.4,105.6,538.8,109.2,543.2,109.3 M564.8,98.5
	c4.4-0.1,8-3.7,8.1-8.1c-0.1-4.4-3.7-7.8-8.1-7.8c-4.3,0-7.8,3.5-7.8,7.8C557,94.8,560.4,98.4,564.8,98.5 M478.4,98.5
	c4.4-0.1,8-3.7,8.1-8.1c-0.1-4.4-3.7-7.8-8.1-7.8c-4.3,0-7.8,3.5-7.8,7.8C470.6,94.8,474,98.4,478.4,98.5 M521.6,98.5
	c4.4-0.1,8-3.7,8.1-8.1c-0.1-4.4-3.7-7.8-8.1-7.8c-4.3,0-7.8,3.5-7.8,7.8C513.8,94.8,517.2,98.4,521.6,98.5 M564.8,76.9
	c4.4-0.1,8-3.7,8.1-8.1c-0.1-4.4-3.7-7.8-8.1-7.8c-4.3,0-7.8,3.5-7.8,7.8C557,73.2,560.4,76.8,564.8,76.9 M564.8,55.3
	c4.4-0.1,8-3.7,8.1-8.1c-0.1-4.4-3.7-7.8-8.1-7.8c-4.3,0-7.8,3.5-7.8,7.8C557,51.6,560.4,55.2,564.8,55.3 M335,198.4l-29.2-42.7
	l29.2-42.7V198.4z M350.9,198.4v-85.3l29.2,42.7L350.9,198.4z M343.6,232.2h1.1c0.3,0,0.3-0.3,0.5-0.3s0.5,0,0.5-0.3h0.5
	c0-0.1,0.1-0.3,0.2-0.3c0,0,0,0,0,0c0.2,0,0.4-0.1,0.5-0.3c0.1,0,0.3-0.1,0.3-0.2c0,0,0,0,0,0h0.3c0-0.1,0.1-0.3,0.2-0.3
	c0,0,0,0,0,0l1.4-1.3V229h0.3l47-68.9c1.6-2.7,1.6-6.2,0-8.9l-47-68.3c-0.1,0-0.3-0.1-0.3-0.2c0,0,0,0,0,0l-0.3-0.3
	c0-0.1-0.1-0.3-0.2-0.3c0,0,0,0,0,0l-0.5-0.5c0-0.1-0.1-0.3-0.2-0.3c0,0,0,0,0,0l-0.3-0.3h-0.3c0-0.1-0.1-0.3-0.2-0.3c0,0,0,0,0,0
	c-0.1,0-0.3-0.1-0.3-0.2c0,0,0,0,0,0h-0.3l-0.3-0.3h-0.3c-0.1,0-0.3-0.1-0.3-0.2c0,0,0,0,0,0h-0.5c-0.3,0-0.3-0.3-0.5-0.3h-3.5
	c-0.3,0-0.3,0.3-0.5,0.3h-0.5c0,0.1-0.1,0.3-0.2,0.3c0,0,0,0,0,0h-0.3l-0.3,0.3H339c0,0.1-0.1,0.3-0.2,0.3c0,0,0,0,0,0
	c-0.1,0-0.3,0.1-0.3,0.2c0,0,0,0,0,0h-0.3l-0.3,0.3c-0.1,0-0.3,0.1-0.3,0.2c0,0,0,0,0,0l-0.5,0.5c-0.1,0-0.3,0.1-0.3,0.2
	c0,0,0,0,0,0l-0.3,0.3c0,0.1-0.1,0.3-0.2,0.3c0,0,0,0,0,0l-47,68.3c-1.6,2.7-1.6,6.2,0,8.9l47,68.9h0.3v0.3l0.8,0.8
	c0,0,0.8,0.6,0.8,0.8c0,0,0,0,0,0h0.3c0,0.1,0.1,0.3,0.2,0.3c0,0,0,0,0,0c0.1,0.2,0.3,0.3,0.5,0.3c0.1,0,0.3,0.1,0.3,0.2
	c0,0,0,0,0,0h0.5c0,0.3,0.3,0.3,0.5,0.3s0.3,0.3,0.5,0.3h1.1c0.2,0,0.4,0.1,0.5,0.3h0.3C343.2,232.4,343.4,232.3,343.6,232.2
	 M70.2,139.9l0.3,0.3l77.2-34v118.2h15.9v-84.2l77.5-34v118.2h15.9V88.5h-16.2l-77.2,34.3V88.5h-15.9l-77.5,34.3V88.5H54.3v135.8
	h15.9V139.9z"/>
</svg>
