<svg id="Layer_1" data-name="Layer 1" xmlns="http://www.w3.org/2000/svg" viewBox="0 0 1008 260"><title>modem_logo</title><path d="M748.32,171.17l77.49.27v53.19h15.93V104.75h77.49V224.63h15.93V88.82H825.81v66.69l-93.42-.27v69.39h15.93ZM623.9,229a8.3,8.3,0,0,0,8.1-8.1,8.07,8.07,0,0,0-8.1-7.83,7.84,7.84,0,0,0-7.83,7.83,8.07,8.07,0,0,0,7.83,8.1m43.2,0a8.3,8.3,0,0,0,8.1-8.1,8.07,8.07,0,0,0-8.1-7.83,7.84,7.84,0,0,0-7.83,7.83,8.07,8.07,0,0,0,7.83,8.1m21.6-10.8a8.3,8.3,0,0,0,8.1-8.1,8.07,8.07,0,0,0-8.1-7.83,7.84,7.84,0,0,0-7.83,7.83,8.07,8.07,0,0,0,7.83,8.1m-86.4,0a8.3,8.3,0,0,0,8.1-8.1,8.07,8.07,0,0,0-8.1-7.83,7.84,7.84,0,0,0-7.83,7.83,8.07,8.07,0,0,0,7.83,8.1m43.2,0a8.3,8.3,0,0,0,8.1-8.1,8.07,8.07,0,0,0-8.1-7.83,7.84,7.84,0,0,0-7.83,7.83,8.07,8.07,0,0,0,7.83,8.1m21.6-10.8a8.3,8.3,0,0,0,8.1-8.1,8.07,8.07,0,0,0-8.1-7.83,7.84,7.84,0,0,0-7.83,7.83,8.07,8.07,0,0,0,7.83,8.1m-43.2,0a8.3,8.3,0,0,0,8.1-8.1,8.07,8.07,0,0,0-8.1-7.83,7.84,7.84,0,0,0-7.83,7.83,8.07,8.07,0,0,0,7.83,8.1m21.6-10.8a8.3,8.3,0,0,0,8.1-8.1,8.07,8.07,0,0,0-8.1-7.83,7.84,7.84,0,0,0-7.83,7.83,8.07,8.07,0,0,0,7.83,8.1m-43.2,0a8.3,8.3,0,0,0,8.1-8.1,8.07,8.07,0,0,0-8.1-7.83,7.84,7.84,0,0,0-7.83,7.83,8.07,8.07,0,0,0,7.83,8.1m-21.6-10.8a8.3,8.3,0,0,0,8.1-8.1,8.07,8.07,0,0,0-8.1-7.83,7.84,7.84,0,0,0-7.83,7.83,8.07,8.07,0,0,0,7.83,8.1m43.2,0a8.3,8.3,0,0,0,8.1-8.1,8.07,8.07,0,0,0-8.1-7.83,7.84,7.84,0,0,0-7.83,7.83,8.07,8.07,0,0,0,7.83,8.1M602.3,175a8.3,8.3,0,0,0,8.1-8.1,8.07,8.07,0,0,0-8.1-7.83,7.84,7.84,0,0,0-7.83,7.83,8.07,8.07,0,0,0,7.83,8.1m-21.6-10.8a8.3,8.3,0,0,0,8.1-8.1,8.07,8.07,0,0,0-8.1-7.83,7.84,7.84,0,0,0-7.83,7.83,8.07,8.07,0,0,0,7.83,8.1m21.6-10.8a8.3,8.3,0,0,0,8.1-8.1,8.07,8.07,0,0,0-8.1-7.83,7.84,7.84,0,0,0-7.83,7.83,8.07,8.07,0,0,0,7.83,8.1m108-10.8a8.3,8.3,0,0,0,8.1-8.1,8.07,8.07,0,0,0-8.1-7.83,7.84,7.84,0,0,0-7.83,7.83,8.07,8.07,0,0,0,7.83,8.1m-86.4,0a8.3,8.3,0,0,0,8.1-8.1,8.07,8.07,0,0,0-8.1-7.83,7.84,7.84,0,0,0-7.83,7.83,8.07,8.07,0,0,0,7.83,8.1m-43.2,0a8.3,8.3,0,0,0,8.1-8.1,8.07,8.07,0,0,0-8.1-7.83,7.84,7.84,0,0,0-7.83,7.83,8.07,8.07,0,0,0,7.83,8.1m86.4,0a8.3,8.3,0,0,0,8.1-8.1,8.07,8.07,0,0,0-8.1-7.83,7.84,7.84,0,0,0-7.83,7.83,8.07,8.07,0,0,0,7.83,8.1m-64.8-10.8a8.3,8.3,0,0,0,8.1-8.1,8.07,8.07,0,0,0-8.1-7.83,7.84,7.84,0,0,0-7.83,7.83,8.07,8.07,0,0,0,7.83,8.1m43.2,0a8.3,8.3,0,0,0,8.1-8.1,8.07,8.07,0,0,0-8.1-7.83,7.84,7.84,0,0,0-7.83,7.83,8.07,8.07,0,0,0,7.83,8.1m43.2,0a8.3,8.3,0,0,0,8.1-8.1,8.07,8.07,0,0,0-8.1-7.83,7.84,7.84,0,0,0-7.83,7.83,8.07,8.07,0,0,0,7.83,8.1M667.1,121a8.3,8.3,0,0,0,8.1-8.1,8.07,8.07,0,0,0-8.1-7.83,7.84,7.84,0,0,0-7.83,7.83,8.07,8.07,0,0,0,7.83,8.1m-43.2,0a8.3,8.3,0,0,0,8.1-8.1,8.07,8.07,0,0,0-8.1-7.83,7.84,7.84,0,0,0-7.83,7.83,8.07,8.07,0,0,0,7.83,8.1m64.8-10.8a8.3,8.3,0,0,0,8.1-8.1,8.07,8.07,0,0,0-8.1-7.83,7.84,7.84,0,0,0-7.83,7.83,8.07,8.07,0,0,0,7.83,8.1m-43.2,0a8.3,8.3,0,0,0,8.1-8.1,8.07,8.07,0,0,0-8.1-7.83,7.84,7.84,0,0,0-7.83,7.83,8.07,8.07,0,0,0,7.83,8.1m-43.2,0a8.3,8.3,0,0,0,8.1-8.1,8.07,8.07,0,0,0-8.1-7.83,7.84,7.84,0,0,0-7.83,7.83,8.07,8.07,0,0,0,7.83,8.1m64.8-10.8a8.3,8.3,0,0,0,8.1-8.1,8.07,8.07,0,0,0-8.1-7.83,7.84,7.84,0,0,0-7.83,7.83,8.07,8.07,0,0,0,7.83,8.1m-43.2,0a8.3,8.3,0,0,0,8.1-8.1,8.07,8.07,0,0,0-8.1-7.83,7.84,7.84,0,0,0-7.83,7.83,8.07,8.07,0,0,0,7.83,8.1M442.31,185.48,436.1,148l17-32.13,30.24-12.15,30.24,12.15,16.47,31.32-5.67,38.34L499.28,209H467.42ZM530.06,202v23h17V37.25h-17v75.6l-5.13-9.72L483.35,86.39l-41.58,16.74-22.14,42.12,7.56,48.33,34,31.32h44.28ZM373.38,122.3l-11.61-10.8-31.86,33.75L298.05,111.5l-11.61,10.8,32.4,34.29-32.4,34.56L298.05,202l31.86-33.75L361.77,202l11.61-10.8L341,156.59Zm4.86,86.4H281.58V104.75h96.66ZM265.65,224.63H394.17V88.82H265.65Zm-141.51,8.1a8,8,0,1,0-8.1-8.1,7.9,7.9,0,0,0,8.1,8.1m86.4,0a8,8,0,1,0-8.1-8.1,7.9,7.9,0,0,0,8.1,8.1m-129.6,0a8,8,0,1,0-8.1-8.1,7.9,7.9,0,0,0,8.1,8.1m86.4,0a8,8,0,1,0-8.1-8.1,7.9,7.9,0,0,0,8.1,8.1m21.6-10.8a8,8,0,1,0-8.1-8.1,7.9,7.9,0,0,0,8.1,8.1m-86.4,0a8,8,0,1,0-8.1-8.1,7.9,7.9,0,0,0,8.1,8.1m43.2,0a8,8,0,1,0-8.1-8.1,7.9,7.9,0,0,0,8.1,8.1m-21.6-10.8A8,8,0,1,0,116,203a7.9,7.9,0,0,0,8.1,8.1m86.4,0a8,8,0,1,0-8.1-8.1,7.9,7.9,0,0,0,8.1,8.1m-129.6,0a8,8,0,1,0-8.1-8.1,7.9,7.9,0,0,0,8.1,8.1m86.4,0a8,8,0,1,0-8.1-8.1,7.9,7.9,0,0,0,8.1,8.1m-64.8-10.8a8,8,0,1,0-8.1-8.1,7.9,7.9,0,0,0,8.1,8.1m43.2,0a8,8,0,1,0-8.1-8.1,7.9,7.9,0,0,0,8.1,8.1m43.2,0a8,8,0,1,0-8.1-8.1,7.9,7.9,0,0,0,8.1,8.1m-108-10.8a8,8,0,1,0-8.1-8.1,7.9,7.9,0,0,0,8.1,8.1m43.2,0a8,8,0,1,0-8.1-8.1,7.9,7.9,0,0,0,8.1,8.1m86.4,0a8,8,0,1,0-8.1-8.1,7.9,7.9,0,0,0,8.1,8.1m-43.2,0a8,8,0,1,0-8.1-8.1,7.9,7.9,0,0,0,8.1,8.1m-64.8-10.8a8,8,0,1,0-8.1-8.1,7.9,7.9,0,0,0,8.1,8.1m86.4,0a8,8,0,1,0-8.1-8.1,7.9,7.9,0,0,0,8.1,8.1m-43.2,0a8,8,0,1,0-8.1-8.1,7.9,7.9,0,0,0,8.1,8.1m-21.6-10.8a8,8,0,1,0-8.1-8.1,7.9,7.9,0,0,0,8.1,8.1m43.2,0a8,8,0,1,0-8.1-8.1,7.9,7.9,0,0,0,8.1,8.1m43.2,0a8,8,0,1,0-8.1-8.1,7.9,7.9,0,0,0,8.1,8.1m-129.6,0a8,8,0,1,0-8.1-8.1,7.9,7.9,0,0,0,8.1,8.1m21.6-10.8a8,8,0,1,0-8.1-8.1,7.9,7.9,0,0,0,8.1,8.1m86.4,0a8,8,0,1,0-8.1-8.1,7.9,7.9,0,0,0,8.1,8.1m-43.2,0a8,8,0,1,0-8.1-8.1,7.9,7.9,0,0,0,8.1,8.1m-64.8-10.8a8,8,0,1,0-8.1-8.1,7.9,7.9,0,0,0,8.1,8.1m129.6,0a8,8,0,1,0-8.1-8.1,7.9,7.9,0,0,0,8.1,8.1m-86.4,0a8,8,0,1,0-8.1-8.1,7.9,7.9,0,0,0,8.1,8.1m43.2,0a8,8,0,1,0-8.1-8.1,7.9,7.9,0,0,0,8.1,8.1m21.6-10.8a8,8,0,1,0-8.1-8.1,7.9,7.9,0,0,0,8.1,8.1m-43.2,0a8,8,0,1,0-8.1-8.1,7.9,7.9,0,0,0,8.1,8.1m-43.2,0a8,8,0,1,0-8.1-8.1,7.9,7.9,0,0,0,8.1,8.1m64.8-10.8a8,8,0,1,0-8.1-8.1,7.9,7.9,0,0,0,8.1,8.1m43.2,0a8,8,0,1,0-8.1-8.1,7.9,7.9,0,0,0,8.1,8.1m-86.4,0a8,8,0,1,0-8.1-8.1,7.9,7.9,0,0,0,8.1,8.1m-43.2,0a8,8,0,1,0-8.1-8.1,7.9,7.9,0,0,0,8.1,8.1m108-10.8a8,8,0,1,0-8.1-8.1,7.9,7.9,0,0,0,8.1,8.1m-86.4,0a8,8,0,1,0-8.1-8.1,7.9,7.9,0,0,0,8.1,8.1m-21.6-10.8a8,8,0,1,0-8.1-8.1,7.9,7.9,0,0,0,8.1,8.1m43.2,0A8,8,0,1,0,116,95a7.9,7.9,0,0,0,8.1,8.1m86.4,0a8,8,0,1,0-8.1-8.1,7.9,7.9,0,0,0,8.1,8.1m-43.2,0a8,8,0,1,0-8.1-8.1,7.9,7.9,0,0,0,8.1,8.1m-64.8-10.8a8,8,0,1,0-8.1-8.1,7.9,7.9,0,0,0,8.1,8.1m86.4,0a8,8,0,1,0-8.1-8.1,7.9,7.9,0,0,0,8.1,8.1"/></svg>