<svg id="Layer_1" data-name="Layer 1" xmlns="http://www.w3.org/2000/svg" viewBox="0 0 1008 260"><title>modem_logo</title><path d="M773.06,171.17l77.49.27v53.19h15.93V104.75H944V224.63H959.9V88.82H850.55v66.69l-93.42-.27v69.39h15.93ZM690,208.7h-51.3l-21.33-40.77,94.23-.27ZM639,106.91h51.3l23.49,44.82-98.55.27ZM699.76,91H629.29l-35.1,67,35.1,66.69h70.47l35.1-67ZM567,228.14a8.3,8.3,0,0,0,8.1-8.1,8.07,8.07,0,0,0-8.1-7.83,7.84,7.84,0,0,0-7.83,7.83,8.07,8.07,0,0,0,7.83,8.1m-43.2,0a8.3,8.3,0,0,0,8.1-8.1,8.07,8.07,0,0,0-8.1-7.83A7.84,7.84,0,0,0,516,220a8.07,8.07,0,0,0,7.83,8.1m-43.2,0a8.3,8.3,0,0,0,8.1-8.1,8.07,8.07,0,0,0-8.1-7.83,7.84,7.84,0,0,0-7.83,7.83,8.07,8.07,0,0,0,7.83,8.1m64.8-10.8a8.3,8.3,0,0,0,8.1-8.1,8.07,8.07,0,0,0-8.1-7.83,7.84,7.84,0,0,0-7.83,7.83,8.07,8.07,0,0,0,7.83,8.1m-86.4,0a8.3,8.3,0,0,0,8.1-8.1,8.07,8.07,0,0,0-8.1-7.83,7.84,7.84,0,0,0-7.83,7.83,8.07,8.07,0,0,0,7.83,8.1m43.2,0a8.3,8.3,0,0,0,8.1-8.1,8.07,8.07,0,0,0-8.1-7.83,7.84,7.84,0,0,0-7.83,7.83,8.07,8.07,0,0,0,7.83,8.1m21.6-10.8a8.3,8.3,0,0,0,8.1-8.1,8.07,8.07,0,0,0-8.1-7.83,7.84,7.84,0,0,0-7.83,7.83,8.07,8.07,0,0,0,7.83,8.1m43.2,0a8.3,8.3,0,0,0,8.1-8.1,8.07,8.07,0,0,0-8.1-7.83,7.84,7.84,0,0,0-7.83,7.83,8.07,8.07,0,0,0,7.83,8.1m-86.4,0a8.3,8.3,0,0,0,8.1-8.1,8.07,8.07,0,0,0-8.1-7.83,7.84,7.84,0,0,0-7.83,7.83,8.07,8.07,0,0,0,7.83,8.1m21.6-10.8a8.3,8.3,0,0,0,8.1-8.1,8.07,8.07,0,0,0-8.1-7.83,7.84,7.84,0,0,0-7.83,7.83,8.07,8.07,0,0,0,7.83,8.1m-43.2,0a8.3,8.3,0,0,0,8.1-8.1,8.07,8.07,0,0,0-8.1-7.83,7.84,7.84,0,0,0-7.83,7.83,8.07,8.07,0,0,0,7.83,8.1m86.4,0a8.3,8.3,0,0,0,8.1-8.1,8.07,8.07,0,0,0-8.1-7.83,7.84,7.84,0,0,0-7.83,7.83,8.07,8.07,0,0,0,7.83,8.1m21.6-10.8a8.3,8.3,0,0,0,8.1-8.1A8.07,8.07,0,0,0,567,169a7.84,7.84,0,0,0-7.83,7.83,8.07,8.07,0,0,0,7.83,8.1m-129.6,0a8.3,8.3,0,0,0,8.1-8.1,8.07,8.07,0,0,0-8.1-7.83,7.84,7.84,0,0,0-7.83,7.83,8.07,8.07,0,0,0,7.83,8.1m86.4,0a8.3,8.3,0,0,0,8.1-8.1,8.07,8.07,0,0,0-8.1-7.83,7.84,7.84,0,0,0-7.83,7.83,8.07,8.07,0,0,0,7.83,8.1m-43.2,0a8.3,8.3,0,0,0,8.1-8.1,8.07,8.07,0,0,0-8.1-7.83,7.84,7.84,0,0,0-7.83,7.83,8.07,8.07,0,0,0,7.83,8.1m64.8-10.8a8.3,8.3,0,0,0,8.1-8.1,8.07,8.07,0,0,0-8.1-7.83,7.84,7.84,0,0,0-7.83,7.83,8.07,8.07,0,0,0,7.83,8.1m-43.2,0a8.3,8.3,0,0,0,8.1-8.1,8.07,8.07,0,0,0-8.1-7.83,7.84,7.84,0,0,0-7.83,7.83,8.07,8.07,0,0,0,7.83,8.1m-43.2,0a8.3,8.3,0,0,0,8.1-8.1,8.07,8.07,0,0,0-8.1-7.83,7.84,7.84,0,0,0-7.83,7.83,8.07,8.07,0,0,0,7.83,8.1m-21.6-10.8a8.3,8.3,0,0,0,8.1-8.1,8.07,8.07,0,0,0-8.1-7.83,7.84,7.84,0,0,0-7.83,7.83,8.07,8.07,0,0,0,7.83,8.1m129.6,0a8.3,8.3,0,0,0,8.1-8.1,8.07,8.07,0,0,0-8.1-7.83,7.84,7.84,0,0,0-7.83,7.83,8.07,8.07,0,0,0,7.83,8.1m-86.4,0a8.3,8.3,0,0,0,8.1-8.1,8.07,8.07,0,0,0-8.1-7.83,7.84,7.84,0,0,0-7.83,7.83,8.07,8.07,0,0,0,7.83,8.1m43.2,0a8.3,8.3,0,0,0,8.1-8.1,8.07,8.07,0,0,0-8.1-7.83,7.84,7.84,0,0,0-7.83,7.83,8.07,8.07,0,0,0,7.83,8.1M459,152.54a8.3,8.3,0,0,0,8.1-8.1,8.07,8.07,0,0,0-8.1-7.83,7.84,7.84,0,0,0-7.83,7.83,8.07,8.07,0,0,0,7.83,8.1m86.4,0a8.3,8.3,0,0,0,8.1-8.1,8.07,8.07,0,0,0-8.1-7.83,7.84,7.84,0,0,0-7.83,7.83,8.07,8.07,0,0,0,7.83,8.1m-43.2,0a8.3,8.3,0,0,0,8.1-8.1,8.07,8.07,0,0,0-8.1-7.83,7.84,7.84,0,0,0-7.83,7.83,8.07,8.07,0,0,0,7.83,8.1m-64.8-10.8a8.3,8.3,0,0,0,8.1-8.1,8.07,8.07,0,0,0-8.1-7.83,7.84,7.84,0,0,0-7.83,7.83,8.07,8.07,0,0,0,7.83,8.1m86.4,0a8.3,8.3,0,0,0,8.1-8.1,8.07,8.07,0,0,0-8.1-7.83,7.84,7.84,0,0,0-7.83,7.83,8.07,8.07,0,0,0,7.83,8.1m-43.2,0a8.3,8.3,0,0,0,8.1-8.1,8.07,8.07,0,0,0-8.1-7.83,7.84,7.84,0,0,0-7.83,7.83,8.07,8.07,0,0,0,7.83,8.1m86.4,0a8.3,8.3,0,0,0,8.1-8.1,8.07,8.07,0,0,0-8.1-7.83,7.84,7.84,0,0,0-7.83,7.83,8.07,8.07,0,0,0,7.83,8.1m-64.8-10.8a8.3,8.3,0,0,0,8.1-8.1,8.07,8.07,0,0,0-8.1-7.83,7.84,7.84,0,0,0-7.83,7.83,8.07,8.07,0,0,0,7.83,8.1m43.2,0a8.3,8.3,0,0,0,8.1-8.1,8.07,8.07,0,0,0-8.1-7.83,7.84,7.84,0,0,0-7.83,7.83,8.07,8.07,0,0,0,7.83,8.1m-86.4,0a8.3,8.3,0,0,0,8.1-8.1A8.07,8.07,0,0,0,459,115a7.84,7.84,0,0,0-7.83,7.83,8.07,8.07,0,0,0,7.83,8.1m64.8-10.8a8.3,8.3,0,0,0,8.1-8.1,8.07,8.07,0,0,0-8.1-7.83A7.84,7.84,0,0,0,516,112a8.07,8.07,0,0,0,7.83,8.1m-43.2,0a8.3,8.3,0,0,0,8.1-8.1,8.07,8.07,0,0,0-8.1-7.83,7.84,7.84,0,0,0-7.83,7.83,8.07,8.07,0,0,0,7.83,8.1m86.4,0a8.3,8.3,0,0,0,8.1-8.1,8.07,8.07,0,0,0-8.1-7.83,7.84,7.84,0,0,0-7.83,7.83,8.07,8.07,0,0,0,7.83,8.1m-64.8-10.8a8.3,8.3,0,0,0,8.1-8.1,8.07,8.07,0,0,0-8.1-7.83,7.84,7.84,0,0,0-7.83,7.83,8.07,8.07,0,0,0,7.83,8.1m-43.2,0a8.3,8.3,0,0,0,8.1-8.1,8.07,8.07,0,0,0-8.1-7.83,7.84,7.84,0,0,0-7.83,7.83,8.07,8.07,0,0,0,7.83,8.1m86.4,0a8.3,8.3,0,0,0,8.1-8.1,8.07,8.07,0,0,0-8.1-7.83,7.84,7.84,0,0,0-7.83,7.83,8.07,8.07,0,0,0,7.83,8.1M567,98.54a8.3,8.3,0,0,0,8.1-8.1,8.07,8.07,0,0,0-8.1-7.83,7.84,7.84,0,0,0-7.83,7.83,8.07,8.07,0,0,0,7.83,8.1m-86.4,0a8.3,8.3,0,0,0,8.1-8.1,8.07,8.07,0,0,0-8.1-7.83,7.84,7.84,0,0,0-7.83,7.83,8.07,8.07,0,0,0,7.83,8.1m43.2,0a8.3,8.3,0,0,0,8.1-8.1,8.07,8.07,0,0,0-8.1-7.83A7.84,7.84,0,0,0,516,90.44a8.07,8.07,0,0,0,7.83,8.1M567,76.94a8.3,8.3,0,0,0,8.1-8.1A8.07,8.07,0,0,0,567,61a7.84,7.84,0,0,0-7.83,7.83,8.07,8.07,0,0,0,7.83,8.1m0-21.6a8.3,8.3,0,0,0,8.1-8.1,8.07,8.07,0,0,0-8.1-7.83,7.84,7.84,0,0,0-7.83,7.83,8.07,8.07,0,0,0,7.83,8.1M297.87,156.05c0-33.21,21.6-55.89,47.79-55.89s47.79,22.68,47.79,55.89-21.6,55.62-47.79,55.62-47.79-22.41-47.79-55.62m-16.47,0c0,42.12,29.16,70.74,64.53,70.74,34.83,0,64-28.62,64-70.74s-29.16-71-64-71c-35.37,0-64.53,28.89-64.53,71M64,105h77.49V224.9h15.93V105h77.49V224.9h15.93V89.09H48.1V224.9H64Z"/></svg>