<svg id="Layer_1" data-name="Layer 1" xmlns="http://www.w3.org/2000/svg" viewBox="0 0 1008 260"><title>modem_logo</title><path d="M851.7,116.9v108h15.93l77.49-108v108h15.93V89.09H945.12L867.63,197.63V89.09H851.7L774.21,197.63V89.09H758.28V224.9h15.93ZM616.18,105.29h92.88v38.88H616.18ZM725,209H616.18V160.1H725V89.36H600.25V224.9H725Zm-269.4-25.11V127.43l47-27.81,46.17,27.27V184.4l-46.17,27.27ZM548.74,36.71v71.55L502.57,81l-62.91,37.26V193l62.91,37.26L548.74,203v21.33h17V36.71ZM298.18,127.16l48.6-28.08,48.33,28.08v56.43l-48.6,28.08-48.33-28.08ZM282.25,118v74.79L346.51,230,411,192.77V118L346.78,80.72Zm-48.46,80.46-29.16-42.39,29.16-42.66Zm-170.91,0v-85L92,156.05Zm93.42,0v-85l29.16,42.66Zm-15.93,0-29.16-42.39,29.16-42.66Zm103.68,33.48a7.78,7.78,0,0,0,5.67-7.56V87.47a7.78,7.78,0,0,0-5.67-7.56,8.08,8.08,0,0,0-8.91,3l-40.23,58.86L155,82.88a.26.26,0,0,1-.27-.27l-.27-.27a.26.26,0,0,0-.27-.27V81.8h-.27l-.27-.27a.26.26,0,0,0-.27-.27.26.26,0,0,1-.27-.27h-.27a.26.26,0,0,0-.27-.27.26.26,0,0,1-.27-.27H152l-.27-.27h-.27a.26.26,0,0,1-.27-.27h-.54c-.27,0-.27-.27-.54-.27h-3.51c-.27,0-.27.27-.54.27h-.54a.26.26,0,0,1-.27.27H145l-.27.27h-.27a.26.26,0,0,1-.27.27.26.26,0,0,0-.27.27h-.27a.26.26,0,0,1-.27.27.26.26,0,0,0-.27.27l-.27.27h-.27v.27a.26.26,0,0,0-.27.27l-.27.27a.26.26,0,0,1-.27.27l-40.23,58.86-40-58.86a8.08,8.08,0,0,0-8.91-3A7.78,7.78,0,0,0,47,87.47V224.36a7.78,7.78,0,0,0,5.67,7.56,8.08,8.08,0,0,0,8.91-3l40-58.86L141.72,229H142v.27l.81.81a3358679592918.07,3358679592918.07,0,0,0,.54.54.26.26,0,0,1,.27.27h.27a.26.26,0,0,0,.27.27.84.84,0,0,0,.54.27.26.26,0,0,1,.27.27h.54c0,.27.27.27.54.27s.27.27.54.27h1.35c.27,0,.27.27.54.27v-.27h1.89a.26.26,0,0,1,.27-.27h.54a.26.26,0,0,1,.27-.27h.27l.27-.27h.27a.26.26,0,0,1,.27-.27.26.26,0,0,0,.27-.27h.27a.26.26,0,0,1,.27-.27.26.26,0,0,0,.27-.27l.27-.27h.27v-.27a.26.26,0,0,0,.27-.27l.27-.27A.26.26,0,0,1,155,229l40-58.86L235.14,229a8.44,8.44,0,0,0,6.75,3.51,8.35,8.35,0,0,0,2.16-.54"/></svg>