<svg id="Layer_1" data-name="Layer 1" xmlns="http://www.w3.org/2000/svg" viewBox="0 0 1008 260"><title>modem_logo</title><path d="M844.5,232.73a8,8,0,1,0-8.1-8.1,7.9,7.9,0,0,0,8.1,8.1m86.4,0a8,8,0,1,0-8.1-8.1,7.9,7.9,0,0,0,8.1,8.1m-129.6,0a8,8,0,1,0-8.1-8.1,7.9,7.9,0,0,0,8.1,8.1m86.4,0a8,8,0,1,0-8.1-8.1,7.9,7.9,0,0,0,8.1,8.1m21.6-10.8a8,8,0,1,0-8.1-8.1,7.9,7.9,0,0,0,8.1,8.1m-86.4,0a8,8,0,1,0-8.1-8.1,7.9,7.9,0,0,0,8.1,8.1m43.2,0a8,8,0,1,0-8.1-8.1,7.9,7.9,0,0,0,8.1,8.1m-21.6-10.8a8,8,0,1,0-8.1-8.1,7.9,7.9,0,0,0,8.1,8.1m86.4,0a8,8,0,1,0-8.1-8.1,7.9,7.9,0,0,0,8.1,8.1m-129.6,0a8,8,0,1,0-8.1-8.1,7.9,7.9,0,0,0,8.1,8.1m86.4,0a8,8,0,1,0-8.1-8.1,7.9,7.9,0,0,0,8.1,8.1m-64.8-10.8a8,8,0,1,0-8.1-8.1,7.9,7.9,0,0,0,8.1,8.1m43.2,0a8,8,0,1,0-8.1-8.1,7.9,7.9,0,0,0,8.1,8.1m43.2,0a8,8,0,1,0-8.1-8.1,7.9,7.9,0,0,0,8.1,8.1m-108-10.8a8,8,0,1,0-8.1-8.1,7.9,7.9,0,0,0,8.1,8.1m43.2,0a8,8,0,1,0-8.1-8.1,7.9,7.9,0,0,0,8.1,8.1m86.4,0a8,8,0,1,0-8.1-8.1,7.9,7.9,0,0,0,8.1,8.1m-43.2,0a8,8,0,1,0-8.1-8.1,7.9,7.9,0,0,0,8.1,8.1m-64.8-10.8a8,8,0,1,0-8.1-8.1,7.9,7.9,0,0,0,8.1,8.1m86.4,0a8,8,0,1,0-8.1-8.1,7.9,7.9,0,0,0,8.1,8.1m-43.2,0a8,8,0,1,0-8.1-8.1,7.9,7.9,0,0,0,8.1,8.1m-21.6-10.8a8,8,0,1,0-8.1-8.1,7.9,7.9,0,0,0,8.1,8.1m43.2,0a8,8,0,1,0-8.1-8.1,7.9,7.9,0,0,0,8.1,8.1m43.2,0a8,8,0,1,0-8.1-8.1,7.9,7.9,0,0,0,8.1,8.1m-129.6,0a8,8,0,1,0-8.1-8.1,7.9,7.9,0,0,0,8.1,8.1m21.6-10.8a8,8,0,1,0-8.1-8.1,7.9,7.9,0,0,0,8.1,8.1m86.4,0a8,8,0,1,0-8.1-8.1,7.9,7.9,0,0,0,8.1,8.1m-43.2,0A8,8,0,1,0,858,149a7.9,7.9,0,0,0,8.1,8.1m-64.8-10.8a8,8,0,1,0-8.1-8.1,7.9,7.9,0,0,0,8.1,8.1m129.6,0a8,8,0,1,0-8.1-8.1,7.9,7.9,0,0,0,8.1,8.1m-86.4,0a8,8,0,1,0-8.1-8.1,7.9,7.9,0,0,0,8.1,8.1m43.2,0a8,8,0,1,0-8.1-8.1,7.9,7.9,0,0,0,8.1,8.1m21.6-10.8a8,8,0,1,0-8.1-8.1,7.9,7.9,0,0,0,8.1,8.1m-43.2,0a8,8,0,1,0-8.1-8.1,7.9,7.9,0,0,0,8.1,8.1m-43.2,0a8,8,0,1,0-8.1-8.1,7.9,7.9,0,0,0,8.1,8.1m64.8-10.8a8,8,0,1,0-8.1-8.1,7.9,7.9,0,0,0,8.1,8.1m43.2,0a8,8,0,1,0-8.1-8.1,7.9,7.9,0,0,0,8.1,8.1m-86.4,0a8,8,0,1,0-8.1-8.1,7.9,7.9,0,0,0,8.1,8.1m-43.2,0a8,8,0,1,0-8.1-8.1,7.9,7.9,0,0,0,8.1,8.1m108-10.8a8,8,0,1,0-8.1-8.1,7.9,7.9,0,0,0,8.1,8.1m-86.4,0a8,8,0,1,0-8.1-8.1,7.9,7.9,0,0,0,8.1,8.1m-21.6-10.8a8,8,0,1,0-8.1-8.1,7.9,7.9,0,0,0,8.1,8.1m43.2,0a8,8,0,1,0-8.1-8.1,7.9,7.9,0,0,0,8.1,8.1m86.4,0a8,8,0,1,0-8.1-8.1,7.9,7.9,0,0,0,8.1,8.1m-43.2,0a8,8,0,1,0-8.1-8.1,7.9,7.9,0,0,0,8.1,8.1m-64.8-10.8a8,8,0,1,0-8.1-8.1,7.9,7.9,0,0,0,8.1,8.1m86.4,0a8,8,0,1,0-8.1-8.1,7.9,7.9,0,0,0,8.1,8.1M635.72,162h96.66V208.7H635.72Zm96.66-15.93H635.72V104.75h96.66ZM619.79,224.63H748.31V88.82H619.79ZM589,193,577.67,181.7l-33.75,34L555,226.79Zm4.59-49.68L582.53,132,498,216.26l11.34,11.34Zm-.81-44.28L581.45,88,471.83,197.63l11.34,11.07Zm-39.69-5.4L541.76,82.61l-84.24,84.24,11.07,11.34Zm-44.55-.27L497.21,82.07,462.38,116.9l11.34,11.34Zm83.7-38.88L580.91,43.46,565,59.39l11.34,11.07ZM411.89,122.3l-11.61-10.8-31.86,33.75L336.56,111.5,325,122.3l32.4,34.29L325,191.15,336.56,202l31.86-33.75L400.28,202l11.61-10.8-32.4-34.56Zm4.86,86.4H320.09V104.75h96.66ZM304.16,224.63H432.68V88.82H304.16ZM85.2,105h77.49V224.9h15.93V171.71l77.49-.27V224.9H272V155.51l-93.42.27V89.09H69.27V224.9H85.2Z"/></svg>