<svg id="Layer_1" data-name="Layer 1" xmlns="http://www.w3.org/2000/svg" viewBox="0 0 1008 260"><title>modem_logo</title><path d="M771.85,171.17l77.49.27v53.19h15.93V104.75h77.49V224.63h15.93V88.82H849.34v66.69l-93.42-.27v69.39h15.93ZM647.43,229a8.3,8.3,0,0,0,8.1-8.1,8.07,8.07,0,0,0-8.1-7.83,7.84,7.84,0,0,0-7.83,7.83,8.07,8.07,0,0,0,7.83,8.1m43.2,0a8.3,8.3,0,0,0,8.1-8.1,8.07,8.07,0,0,0-8.1-7.83,7.84,7.84,0,0,0-7.83,7.83,8.07,8.07,0,0,0,7.83,8.1m21.6-10.8a8.3,8.3,0,0,0,8.1-8.1,8.07,8.07,0,0,0-8.1-7.83,7.84,7.84,0,0,0-7.83,7.83,8.07,8.07,0,0,0,7.83,8.1m-86.4,0a8.3,8.3,0,0,0,8.1-8.1,8.07,8.07,0,0,0-8.1-7.83,7.84,7.84,0,0,0-7.83,7.83,8.07,8.07,0,0,0,7.83,8.1m43.2,0a8.3,8.3,0,0,0,8.1-8.1,8.07,8.07,0,0,0-8.1-7.83,7.84,7.84,0,0,0-7.83,7.83,8.07,8.07,0,0,0,7.83,8.1m21.6-10.8a8.3,8.3,0,0,0,8.1-8.1,8.07,8.07,0,0,0-8.1-7.83,7.84,7.84,0,0,0-7.83,7.83,8.07,8.07,0,0,0,7.83,8.1m-43.2,0a8.3,8.3,0,0,0,8.1-8.1,8.07,8.07,0,0,0-8.1-7.83,7.84,7.84,0,0,0-7.83,7.83,8.07,8.07,0,0,0,7.83,8.1m21.6-10.8a8.3,8.3,0,0,0,8.1-8.1,8.07,8.07,0,0,0-8.1-7.83,7.84,7.84,0,0,0-7.83,7.83,8.07,8.07,0,0,0,7.83,8.1m-43.2,0a8.3,8.3,0,0,0,8.1-8.1,8.07,8.07,0,0,0-8.1-7.83,7.84,7.84,0,0,0-7.83,7.83,8.07,8.07,0,0,0,7.83,8.1m-21.6-10.8a8.3,8.3,0,0,0,8.1-8.1,8.07,8.07,0,0,0-8.1-7.83,7.84,7.84,0,0,0-7.83,7.83,8.07,8.07,0,0,0,7.83,8.1m43.2,0a8.3,8.3,0,0,0,8.1-8.1,8.07,8.07,0,0,0-8.1-7.83,7.84,7.84,0,0,0-7.83,7.83,8.07,8.07,0,0,0,7.83,8.1M625.83,175a8.3,8.3,0,0,0,8.1-8.1,8.07,8.07,0,0,0-8.1-7.83,7.84,7.84,0,0,0-7.83,7.83,8.07,8.07,0,0,0,7.83,8.1m-21.6-10.8a8.3,8.3,0,0,0,8.1-8.1,8.07,8.07,0,0,0-8.1-7.83,7.84,7.84,0,0,0-7.83,7.83,8.07,8.07,0,0,0,7.83,8.1m21.6-10.8a8.3,8.3,0,0,0,8.1-8.1,8.07,8.07,0,0,0-8.1-7.83,7.84,7.84,0,0,0-7.83,7.83,8.07,8.07,0,0,0,7.83,8.1m108-10.8a8.3,8.3,0,0,0,8.1-8.1,8.07,8.07,0,0,0-8.1-7.83,7.84,7.84,0,0,0-7.83,7.83,8.07,8.07,0,0,0,7.83,8.1m-86.4,0a8.3,8.3,0,0,0,8.1-8.1,8.07,8.07,0,0,0-8.1-7.83,7.84,7.84,0,0,0-7.83,7.83,8.07,8.07,0,0,0,7.83,8.1m-43.2,0a8.3,8.3,0,0,0,8.1-8.1,8.07,8.07,0,0,0-8.1-7.83,7.84,7.84,0,0,0-7.83,7.83,8.07,8.07,0,0,0,7.83,8.1m86.4,0a8.3,8.3,0,0,0,8.1-8.1,8.07,8.07,0,0,0-8.1-7.83,7.84,7.84,0,0,0-7.83,7.83,8.07,8.07,0,0,0,7.83,8.1m-64.8-10.8a8.3,8.3,0,0,0,8.1-8.1,8.07,8.07,0,0,0-8.1-7.83,7.84,7.84,0,0,0-7.83,7.83,8.07,8.07,0,0,0,7.83,8.1m43.2,0a8.3,8.3,0,0,0,8.1-8.1,8.07,8.07,0,0,0-8.1-7.83,7.84,7.84,0,0,0-7.83,7.83,8.07,8.07,0,0,0,7.83,8.1m43.2,0a8.3,8.3,0,0,0,8.1-8.1,8.07,8.07,0,0,0-8.1-7.83,7.84,7.84,0,0,0-7.83,7.83,8.07,8.07,0,0,0,7.83,8.1M690.63,121a8.3,8.3,0,0,0,8.1-8.1,8.07,8.07,0,0,0-8.1-7.83,7.84,7.84,0,0,0-7.83,7.83,8.07,8.07,0,0,0,7.83,8.1m-43.2,0a8.3,8.3,0,0,0,8.1-8.1,8.07,8.07,0,0,0-8.1-7.83,7.84,7.84,0,0,0-7.83,7.83,8.07,8.07,0,0,0,7.83,8.1m64.8-10.8a8.3,8.3,0,0,0,8.1-8.1,8.07,8.07,0,0,0-8.1-7.83,7.84,7.84,0,0,0-7.83,7.83,8.07,8.07,0,0,0,7.83,8.1m-43.2,0a8.3,8.3,0,0,0,8.1-8.1,8.07,8.07,0,0,0-8.1-7.83,7.84,7.84,0,0,0-7.83,7.83,8.07,8.07,0,0,0,7.83,8.1m-43.2,0a8.3,8.3,0,0,0,8.1-8.1,8.07,8.07,0,0,0-8.1-7.83,7.84,7.84,0,0,0-7.83,7.83,8.07,8.07,0,0,0,7.83,8.1m64.8-10.8a8.3,8.3,0,0,0,8.1-8.1,8.07,8.07,0,0,0-8.1-7.83,7.84,7.84,0,0,0-7.83,7.83,8.07,8.07,0,0,0,7.83,8.1m-43.2,0a8.3,8.3,0,0,0,8.1-8.1,8.07,8.07,0,0,0-8.1-7.83,7.84,7.84,0,0,0-7.83,7.83,8.07,8.07,0,0,0,7.83,8.1M465.84,185.48,459.63,148l17-32.13,30.24-12.15,30.24,12.15,16.47,31.32-5.67,38.34L522.81,209H491ZM553.59,202v23h17V37.25h-17v75.6l-5.13-9.72L506.88,86.39,465.3,103.13l-22.14,42.12,7.56,48.33,34,31.32H529ZM373.07,229a8.07,8.07,0,0,0,7.83-8.1,8,8,0,0,0-15.93,0,8.12,8.12,0,0,0,8.1,8.1m-43.2,0a8.07,8.07,0,0,0,7.83-8.1,8,8,0,0,0-15.93,0,8.12,8.12,0,0,0,8.1,8.1m-21.6-10.8a8.07,8.07,0,0,0,7.83-8.1,8,8,0,0,0-15.93,0,8.12,8.12,0,0,0,8.1,8.1m86.4,0a8.07,8.07,0,0,0,7.83-8.1,8,8,0,0,0-15.93,0,8.12,8.12,0,0,0,8.1,8.1m-43.2,0a8.07,8.07,0,0,0,7.83-8.1,8,8,0,0,0-15.93,0,8.12,8.12,0,0,0,8.1,8.1m-21.6-10.8a8.07,8.07,0,0,0,7.83-8.1,8,8,0,0,0-15.93,0,8.12,8.12,0,0,0,8.1,8.1m43.2,0a8.07,8.07,0,0,0,7.83-8.1,8,8,0,0,0-15.93,0,8.12,8.12,0,0,0,8.1,8.1m21.6-10.8a8.07,8.07,0,0,0,7.83-8.1,8,8,0,0,0-15.93,0,8.12,8.12,0,0,0,8.1,8.1m-43.2,0a8.07,8.07,0,0,0,7.83-8.1,8,8,0,0,0-15.93,0,8.12,8.12,0,0,0,8.1,8.1m-43.2,0a8.07,8.07,0,0,0,7.83-8.1,8,8,0,0,0-15.93,0,8.12,8.12,0,0,0,8.1,8.1m64.8-10.8a8.07,8.07,0,0,0,7.83-8.1,8,8,0,0,0-15.93,0,8.12,8.12,0,0,0,8.1,8.1m43.2,0a8.07,8.07,0,0,0,7.83-8.1,8,8,0,0,0-15.93,0,8.12,8.12,0,0,0,8.1,8.1m-129.6,0a8.07,8.07,0,0,0,7.83-8.1,8,8,0,0,0-15.93,0,8.12,8.12,0,0,0,8.1,8.1m43.2,0a8.07,8.07,0,0,0,7.83-8.1,8,8,0,0,0-15.93,0,8.12,8.12,0,0,0,8.1,8.1m64.8-10.8a8.07,8.07,0,0,0,7.83-8.1,8,8,0,0,0-15.93,0,8.12,8.12,0,0,0,8.1,8.1m-43.2,0a8.07,8.07,0,0,0,7.83-8.1,8,8,0,0,0-15.93,0,8.12,8.12,0,0,0,8.1,8.1m-43.2,0a8.07,8.07,0,0,0,7.83-8.1,8,8,0,0,0-15.93,0,8.12,8.12,0,0,0,8.1,8.1m64.8-10.8a8.07,8.07,0,0,0,7.83-8.1,8,8,0,0,0-15.93,0,8.12,8.12,0,0,0,8.1,8.1m-86.4,0a8.07,8.07,0,0,0,7.83-8.1,8,8,0,0,0-15.93,0,8.12,8.12,0,0,0,8.1,8.1m43.2,0a8.07,8.07,0,0,0,7.83-8.1,8,8,0,0,0-15.93,0,8.12,8.12,0,0,0,8.1,8.1m86.4,0a8.07,8.07,0,0,0,7.83-8.1,8,8,0,0,0-15.93,0,8.12,8.12,0,0,0,8.1,8.1m-21.6-10.8a8.07,8.07,0,0,0,7.83-8.1,8,8,0,0,0-15.93,0,8.12,8.12,0,0,0,8.1,8.1m-43.2,0a8.07,8.07,0,0,0,7.83-8.1,8,8,0,0,0-15.93,0,8.12,8.12,0,0,0,8.1,8.1m-43.2,0a8.07,8.07,0,0,0,7.83-8.1,8,8,0,0,0-15.93,0,8.12,8.12,0,0,0,8.1,8.1m108-10.8a8.07,8.07,0,0,0,7.83-8.1,8,8,0,0,0-15.93,0,8.12,8.12,0,0,0,8.1,8.1m-86.4,0a8.07,8.07,0,0,0,7.83-8.1,8,8,0,0,0-15.93,0,8.12,8.12,0,0,0,8.1,8.1m-43.2,0a8.07,8.07,0,0,0,7.83-8.1,8,8,0,0,0-15.93,0,8.12,8.12,0,0,0,8.1,8.1m86.4,0a8.07,8.07,0,0,0,7.83-8.1,8,8,0,0,0-15.93,0,8.12,8.12,0,0,0,8.1,8.1m21.6-10.8a8.07,8.07,0,0,0,7.83-8.1,8,8,0,0,0-15.93,0,8.12,8.12,0,0,0,8.1,8.1m-43.2,0a8.07,8.07,0,0,0,7.83-8.1,8,8,0,0,0-15.93,0,8.12,8.12,0,0,0,8.1,8.1m-43.2,0a8.07,8.07,0,0,0,7.83-8.1,8,8,0,0,0-15.93,0,8.12,8.12,0,0,0,8.1,8.1m21.6-10.8a8.07,8.07,0,0,0,7.83-8.1,8,8,0,0,0-15.93,0,8.12,8.12,0,0,0,8.1,8.1m43.2,0a8.07,8.07,0,0,0,7.83-8.1,8,8,0,0,0-15.93,0,8.12,8.12,0,0,0,8.1,8.1m-64.8-10.8a8.07,8.07,0,0,0,7.83-8.1,8,8,0,0,0-15.93,0,8.12,8.12,0,0,0,8.1,8.1m43.2,0a8.07,8.07,0,0,0,7.83-8.1,8,8,0,0,0-15.93,0,8.12,8.12,0,0,0,8.1,8.1m43.2,0a8.07,8.07,0,0,0,7.83-8.1,8,8,0,0,0-15.93,0,8.12,8.12,0,0,0,8.1,8.1m-64.8-10.8a8.07,8.07,0,0,0,7.83-8.1,8,8,0,0,0-15.93,0,8.12,8.12,0,0,0,8.1,8.1m43.2,0a8.07,8.07,0,0,0,7.83-8.1,8,8,0,0,0-15.93,0,8.12,8.12,0,0,0,8.1,8.1M142.73,116.9v108h15.93l77.49-108v108h15.93V89.09H236.15L158.66,197.63V89.09H142.73L65.24,197.63V89.09H49.31V224.9H65.24Z"/></svg>