<svg id="Layer_1" data-name="Layer 1" xmlns="http://www.w3.org/2000/svg" viewBox="0 0 1008 260"><title>modem_logo</title><path d="M913,224.63V88.82L819.54,224.63Zm-93.42,0V88.82L726.12,224.63ZM607,129.05l45.63-26.46,45.9,26.46V145L607,144.44Zm103.41,64.53-7.83-13.77L652.6,208.7,607,182.24V160.37l107.46.54v-41L652.6,84.23,591,119.87v71.55l61.56,35.64Zm-263.27-9.72V127.43l47-27.81,46.17,27.27V184.4l-46.17,27.27ZM540.26,36.71v71.55L494.09,81l-62.91,37.26V193l62.91,37.26L540.26,203v21.33h17V36.71ZM404.46,193.58l-11.34-11.34-33.75,34,11.07,11.07Zm4.59-49.68L398,132.56,313.47,216.8l11.34,11.34Zm-14.31-30.78L383.4,102.05l-96.12,96.12,11.34,11.07Zm-26.19-18.9L357.21,83.15,273,167.39,284,178.73ZM324,94,312.66,82.61l-34.83,34.83,11.34,11.34ZM146.34,232.73a8,8,0,1,0-8.1-8.1,7.9,7.9,0,0,0,8.1,8.1m86.4,0a8,8,0,1,0-8.1-8.1,7.9,7.9,0,0,0,8.1,8.1m-129.6,0a8,8,0,1,0-8.1-8.1,7.9,7.9,0,0,0,8.1,8.1m86.4,0a8,8,0,1,0-8.1-8.1,7.9,7.9,0,0,0,8.1,8.1m21.6-10.8a8,8,0,1,0-8.1-8.1,7.9,7.9,0,0,0,8.1,8.1m-86.4,0a8,8,0,1,0-8.1-8.1,7.9,7.9,0,0,0,8.1,8.1m43.2,0a8,8,0,1,0-8.1-8.1,7.9,7.9,0,0,0,8.1,8.1m-21.6-10.8a8,8,0,1,0-8.1-8.1,7.9,7.9,0,0,0,8.1,8.1m86.4,0a8,8,0,1,0-8.1-8.1,7.9,7.9,0,0,0,8.1,8.1m-129.6,0A8,8,0,1,0,95,203a7.9,7.9,0,0,0,8.1,8.1m86.4,0a8,8,0,1,0-8.1-8.1,7.9,7.9,0,0,0,8.1,8.1m-64.8-10.8a8,8,0,1,0-8.1-8.1,7.9,7.9,0,0,0,8.1,8.1m43.2,0a8,8,0,1,0-8.1-8.1,7.9,7.9,0,0,0,8.1,8.1m43.2,0a8,8,0,1,0-8.1-8.1,7.9,7.9,0,0,0,8.1,8.1m-108-10.8a8,8,0,1,0-8.1-8.1,7.9,7.9,0,0,0,8.1,8.1m43.2,0a8,8,0,1,0-8.1-8.1,7.9,7.9,0,0,0,8.1,8.1m86.4,0a8,8,0,1,0-8.1-8.1,7.9,7.9,0,0,0,8.1,8.1m-43.2,0a8,8,0,1,0-8.1-8.1,7.9,7.9,0,0,0,8.1,8.1m-64.8-10.8a8,8,0,1,0-8.1-8.1,7.9,7.9,0,0,0,8.1,8.1m86.4,0a8,8,0,1,0-8.1-8.1,7.9,7.9,0,0,0,8.1,8.1m-43.2,0a8,8,0,1,0-8.1-8.1,7.9,7.9,0,0,0,8.1,8.1m-21.6-10.8a8,8,0,1,0-8.1-8.1,7.9,7.9,0,0,0,8.1,8.1m43.2,0a8,8,0,1,0-8.1-8.1,7.9,7.9,0,0,0,8.1,8.1m43.2,0a8,8,0,1,0-8.1-8.1,7.9,7.9,0,0,0,8.1,8.1m-129.6,0a8,8,0,1,0-8.1-8.1,7.9,7.9,0,0,0,8.1,8.1m21.6-10.8a8,8,0,1,0-8.1-8.1,7.9,7.9,0,0,0,8.1,8.1m86.4,0A8,8,0,1,0,203,149a7.9,7.9,0,0,0,8.1,8.1m-43.2,0a8,8,0,1,0-8.1-8.1,7.9,7.9,0,0,0,8.1,8.1m-64.8-10.8a8,8,0,1,0-8.1-8.1,7.9,7.9,0,0,0,8.1,8.1m129.6,0a8,8,0,1,0-8.1-8.1,7.9,7.9,0,0,0,8.1,8.1m-86.4,0a8,8,0,1,0-8.1-8.1,7.9,7.9,0,0,0,8.1,8.1m43.2,0a8,8,0,1,0-8.1-8.1,7.9,7.9,0,0,0,8.1,8.1m21.6-10.8a8,8,0,1,0-8.1-8.1,7.9,7.9,0,0,0,8.1,8.1m-43.2,0a8,8,0,1,0-8.1-8.1,7.9,7.9,0,0,0,8.1,8.1m-43.2,0a8,8,0,1,0-8.1-8.1,7.9,7.9,0,0,0,8.1,8.1m64.8-10.8a8,8,0,1,0-8.1-8.1,7.9,7.9,0,0,0,8.1,8.1m43.2,0a8,8,0,1,0-8.1-8.1,7.9,7.9,0,0,0,8.1,8.1m-86.4,0a8,8,0,1,0-8.1-8.1,7.9,7.9,0,0,0,8.1,8.1m-43.2,0a8,8,0,1,0-8.1-8.1,7.9,7.9,0,0,0,8.1,8.1m108-10.8a8,8,0,1,0-8.1-8.1,7.9,7.9,0,0,0,8.1,8.1m-86.4,0a8,8,0,1,0-8.1-8.1,7.9,7.9,0,0,0,8.1,8.1m-21.6-10.8A8,8,0,1,0,95,95a7.9,7.9,0,0,0,8.1,8.1m43.2,0a8,8,0,1,0-8.1-8.1,7.9,7.9,0,0,0,8.1,8.1m86.4,0a8,8,0,1,0-8.1-8.1,7.9,7.9,0,0,0,8.1,8.1m-43.2,0a8,8,0,1,0-8.1-8.1,7.9,7.9,0,0,0,8.1,8.1m-64.8-10.8a8,8,0,1,0-8.1-8.1,7.9,7.9,0,0,0,8.1,8.1m86.4,0a8,8,0,1,0-8.1-8.1,7.9,7.9,0,0,0,8.1,8.1"/></svg>