<?xml version="1.0" encoding="utf-8"?>
<!-- Generator: Adobe Illustrator 23.0.1, SVG Export Plug-In . SVG Version: 6.00 Build 0)  -->
<svg version="1.1" id="Layer_1" xmlns="http://www.w3.org/2000/svg" xmlns:xlink="http://www.w3.org/1999/xlink" x="0px" y="0px"
	 viewBox="0 0 1008 260" style="enable-background:new 0 0 1008 260;" xml:space="preserve">
<title>modem_logo</title>
<path d="M949.9,100.4h-15.9v124.2h15.9V100.4z M790.3,100.4h-15.9v124.2h15.9V100.4z M886.1,100.4h-15.9v124.2h15.9V100.4z
	 M854.3,100.4h-15.9v124.2h15.9V100.4z M758.4,87.7h-15.9v136.9h15.9V87.7z M822.2,83.1h-15.9v141.5h15.9L822.2,83.1z M918,83.1
	h-15.9v141.5H918L918,83.1z M675.5,208.7h-51.3l-21.3-40.8l94.2-0.3L675.5,208.7z M624.5,106.9h51.3l23.5,44.8l-98.5,0.3
	L624.5,106.9z M685.3,91h-70.5l-35.1,67l35.1,66.7h70.5l35.1-67L685.3,91z M445.6,183.9v-56.5l47-27.8l46.2,27.3v57.5l-46.2,27.3
	L445.6,183.9z M538.7,36.7v71.6L492.5,81l-62.9,37.3V193l62.9,37.3l46.2-27.3v21.3h17V36.7H538.7z M338.8,198.4l-29.2-42.7
	l29.2-42.7V198.4z M354.7,198.4v-85.3l29.2,42.7L354.7,198.4z M347.4,232.2h1.1c0.3,0,0.3-0.3,0.5-0.3s0.5,0,0.5-0.3h0.5
	c0-0.1,0.1-0.3,0.2-0.3c0,0,0,0,0,0c0.2,0,0.4-0.1,0.5-0.3c0.1,0,0.3-0.1,0.3-0.2c0,0,0,0,0,0h0.3c0-0.1,0.1-0.3,0.2-0.3
	c0,0,0,0,0,0l1.4-1.3V229h0.3l47-68.9c1.6-2.7,1.6-6.2,0-8.9l-47-68.3c-0.1,0-0.3-0.1-0.3-0.2c0,0,0,0,0,0l-0.3-0.3
	c0-0.1-0.1-0.3-0.2-0.3c0,0,0,0,0,0l-0.5-0.5c0-0.1-0.1-0.3-0.2-0.3c0,0,0,0,0,0l-0.3-0.3h-0.3c0-0.1-0.1-0.3-0.2-0.3c0,0,0,0,0,0
	c-0.1,0-0.3-0.1-0.3-0.2c0,0,0,0,0,0h-0.3l-0.3-0.3h-0.3c-0.1,0-0.3-0.1-0.3-0.2c0,0,0,0,0,0h-0.5c-0.3,0-0.3-0.3-0.5-0.3H345
	c-0.3,0-0.3,0.3-0.5,0.3h-0.5c0,0.1-0.1,0.3-0.2,0.3c0,0,0,0,0,0h-0.3l-0.3,0.3h-0.3c0,0.1-0.1,0.3-0.2,0.3c0,0,0,0,0,0
	c-0.1,0-0.3,0.1-0.3,0.2c0,0,0,0,0,0H342l-0.3,0.3c-0.1,0-0.3,0.1-0.3,0.2c0,0,0,0,0,0l-0.5,0.5c-0.1,0-0.3,0.1-0.3,0.2c0,0,0,0,0,0
	l-0.3,0.3c0,0.1-0.1,0.3-0.2,0.3c0,0,0,0,0,0l-47,68.3c-1.6,2.7-1.6,6.2,0,8.9l47,68.9h0.3v0.3l0.8,0.8c0,0,0.8,0.6,0.8,0.8
	c0,0,0,0,0,0h0.3c0,0.1,0.1,0.3,0.2,0.3c0,0,0,0,0,0c0.1,0.2,0.3,0.3,0.5,0.3c0.1,0,0.3,0.1,0.3,0.2c0,0,0,0,0,0h0.5
	c0,0.3,0.3,0.3,0.5,0.3s0.3,0.3,0.5,0.3h1.1c0.2,0,0.4,0.1,0.5,0.3h0.3C347,232.4,347.2,232.3,347.4,232.2 M74.1,139.9l0.3,0.3
	l77.2-34v118.2h15.9v-84.2l77.5-34v118.2h15.9V88.5h-16.2l-77.2,34.3V88.5h-15.9l-77.5,34.3V88.5H58.1v135.8h15.9V139.9z"/>
</svg>
