<svg id="Layer_1" data-name="Layer 1" xmlns="http://www.w3.org/2000/svg" viewBox="0 0 1008 260"><title>modem_logo</title><path d="M963.56,100.43H947.63v124.2h15.93Zm-159.57,0H788.06v124.2H804Zm95.85,0H883.91v124.2h15.93Zm-31.86,0H852.05v124.2H868ZM772.13,87.74H756.2V224.63h15.93Zm63.72-4.59H819.92V224.63h15.93Zm95.85,0H915.77V224.63H931.7ZM689.24,208.7h-51.3l-21.33-40.77,94.23-.27Zm-51-101.79h51.3L713,151.73l-98.55.27ZM699,91H628.49l-35.1,67,35.1,66.69H699l35.1-67ZM547.77,158.21C547,189.8,530,211.67,501.06,211.67c-25.92,0-46.17-24.57-46.17-55.62,0-31.32,20.25-55.89,46.17-55.89,29.7,0,46.71,22.68,46.71,55.62ZM563.7,36.71H547.77v76.14h-1.62C534,95.57,518.07,85,500,85c-34.29,0-61.56,31.86-61.56,71,0,38.88,27.27,70.74,61.56,70.74,18.09,0,34-8.91,46.17-26.19h1.62v24H563.7ZM367.63,229a8.07,8.07,0,0,0,7.83-8.1,8,8,0,0,0-15.93,0,8.12,8.12,0,0,0,8.1,8.1m-43.2,0a8.07,8.07,0,0,0,7.83-8.1,8,8,0,0,0-15.93,0,8.12,8.12,0,0,0,8.1,8.1m-21.6-10.8a8.07,8.07,0,0,0,7.83-8.1,8,8,0,0,0-15.93,0,8.12,8.12,0,0,0,8.1,8.1m86.4,0a8.07,8.07,0,0,0,7.83-8.1,8,8,0,0,0-15.93,0,8.12,8.12,0,0,0,8.1,8.1m-43.2,0a8.07,8.07,0,0,0,7.83-8.1,8,8,0,0,0-15.93,0,8.12,8.12,0,0,0,8.1,8.1m-21.6-10.8a8.07,8.07,0,0,0,7.83-8.1,8,8,0,0,0-15.93,0,8.12,8.12,0,0,0,8.1,8.1m43.2,0a8.07,8.07,0,0,0,7.83-8.1,8,8,0,0,0-15.93,0,8.12,8.12,0,0,0,8.1,8.1m21.6-10.8a8.07,8.07,0,0,0,7.83-8.1,8,8,0,0,0-15.93,0,8.12,8.12,0,0,0,8.1,8.1m-43.2,0a8.07,8.07,0,0,0,7.83-8.1,8,8,0,0,0-15.93,0,8.12,8.12,0,0,0,8.1,8.1m-43.2,0a8.07,8.07,0,0,0,7.83-8.1,8,8,0,0,0-15.93,0,8.12,8.12,0,0,0,8.1,8.1m64.8-10.8a8.07,8.07,0,0,0,7.83-8.1,8,8,0,0,0-15.93,0,8.12,8.12,0,0,0,8.1,8.1m43.2,0a8.07,8.07,0,0,0,7.83-8.1,8,8,0,0,0-15.93,0,8.12,8.12,0,0,0,8.1,8.1m-129.6,0a8.07,8.07,0,0,0,7.83-8.1,8,8,0,0,0-15.93,0,8.12,8.12,0,0,0,8.1,8.1m43.2,0a8.07,8.07,0,0,0,7.83-8.1,8,8,0,0,0-15.93,0,8.12,8.12,0,0,0,8.1,8.1m64.8-10.8a8.07,8.07,0,0,0,7.83-8.1,8,8,0,0,0-15.93,0,8.12,8.12,0,0,0,8.1,8.1M346,175a8.07,8.07,0,0,0,7.83-8.1,8,8,0,0,0-15.93,0A8.12,8.12,0,0,0,346,175m-43.2,0a8.07,8.07,0,0,0,7.83-8.1,8,8,0,0,0-15.93,0,8.12,8.12,0,0,0,8.1,8.1m64.8-10.8a8.07,8.07,0,0,0,7.83-8.1,8,8,0,0,0-15.93,0,8.12,8.12,0,0,0,8.1,8.1m-86.4,0a8.07,8.07,0,0,0,7.83-8.1,8,8,0,0,0-15.93,0,8.12,8.12,0,0,0,8.1,8.1m43.2,0a8.07,8.07,0,0,0,7.83-8.1,8,8,0,0,0-15.93,0,8.12,8.12,0,0,0,8.1,8.1m86.4,0a8.07,8.07,0,0,0,7.83-8.1,8,8,0,0,0-15.93,0,8.12,8.12,0,0,0,8.1,8.1m-21.6-10.8a8.07,8.07,0,0,0,7.83-8.1,8,8,0,0,0-15.93,0,8.12,8.12,0,0,0,8.1,8.1m-43.2,0a8.07,8.07,0,0,0,7.83-8.1,8,8,0,0,0-15.93,0,8.12,8.12,0,0,0,8.1,8.1m-43.2,0a8.07,8.07,0,0,0,7.83-8.1,8,8,0,0,0-15.93,0,8.12,8.12,0,0,0,8.1,8.1m108-10.8a8.07,8.07,0,0,0,7.83-8.1,8,8,0,0,0-15.93,0,8.12,8.12,0,0,0,8.1,8.1m-86.4,0a8.07,8.07,0,0,0,7.83-8.1,8,8,0,0,0-15.93,0,8.12,8.12,0,0,0,8.1,8.1m-43.2,0a8.07,8.07,0,0,0,7.83-8.1,8,8,0,0,0-15.93,0,8.12,8.12,0,0,0,8.1,8.1m86.4,0a8.07,8.07,0,0,0,7.83-8.1,8,8,0,0,0-15.93,0,8.12,8.12,0,0,0,8.1,8.1m21.6-10.8a8.07,8.07,0,0,0,7.83-8.1,8,8,0,0,0-15.93,0,8.12,8.12,0,0,0,8.1,8.1m-43.2,0a8.07,8.07,0,0,0,7.83-8.1,8,8,0,0,0-15.93,0,8.12,8.12,0,0,0,8.1,8.1m-43.2,0a8.07,8.07,0,0,0,7.83-8.1,8,8,0,0,0-15.93,0,8.12,8.12,0,0,0,8.1,8.1m21.6-10.8a8.07,8.07,0,0,0,7.83-8.1,8,8,0,0,0-15.93,0,8.12,8.12,0,0,0,8.1,8.1m43.2,0a8.07,8.07,0,0,0,7.83-8.1,8,8,0,0,0-15.93,0,8.12,8.12,0,0,0,8.1,8.1m-64.8-10.8a8.07,8.07,0,0,0,7.83-8.1,8,8,0,0,0-15.93,0,8.12,8.12,0,0,0,8.1,8.1m43.2,0a8.07,8.07,0,0,0,7.83-8.1,8,8,0,0,0-15.93,0,8.12,8.12,0,0,0,8.1,8.1m43.2,0a8.07,8.07,0,0,0,7.83-8.1,8,8,0,0,0-15.93,0,8.12,8.12,0,0,0,8.1,8.1m-64.8-10.8a8.07,8.07,0,0,0,7.83-8.1,8,8,0,0,0-15.93,0,8.12,8.12,0,0,0,8.1,8.1m43.2,0a8.07,8.07,0,0,0,7.83-8.1,8,8,0,0,0-15.93,0,8.12,8.12,0,0,0,8.1,8.1M247.48,184.67l-11.07-11.34-39.69,39.42,11.34,11.34Zm.54-45.36L236.68,128,151.9,212.75l11.34,11.07ZM143.8,108,132.73,96.92,44.44,185.21l11.07,11.07Zm92.07-1.89L224.8,95,106.54,213l11.07,11.34ZM121.39,85.58,110.05,74.24,44.44,139.85l11.34,11.34ZM213.19,84,201.85,72.62,61.45,213l11.34,11.34Z"/></svg>