<svg id="Layer_1" data-name="Layer 1" xmlns="http://www.w3.org/2000/svg" viewBox="0 0 1008 260"><title>modem_logo</title><path d="M771.21,171.17l77.49.27v53.19h15.93V104.75h77.49V224.63h15.93V88.82H848.7v66.69l-93.42-.27v69.39h15.93ZM619.72,105.29H712.6v38.88H619.72ZM728.53,209H619.72V160.1H728.53V89.36H603.79V224.9H728.53Zm-264.6-23.49L457.72,148l17-32.13L505,103.67l30.24,12.15,16.47,31.32L546,185.48,520.9,209H489ZM551.68,202v23h17V37.25h-17v75.6l-5.13-9.72L505,86.39l-41.58,16.74-22.14,42.12,7.56,48.33,34,31.32h44.28ZM395,122.3,383.4,111.5l-31.86,33.75L319.68,111.5l-11.61,10.8,32.4,34.29-32.4,34.56L319.68,202l31.86-33.75L383.4,202,395,191.15l-32.4-34.56Zm4.86,86.4H303.21V104.75h96.66ZM287.28,224.63H415.8V88.82H287.28Zm-34.29-40-11.07-11.34-39.69,39.42,11.34,11.34Zm.54-45.36L242.19,128l-84.78,84.78,11.34,11.07ZM149.31,108,138.24,96.92,50,185.21,61,196.28Zm92.07-1.89L230.31,95,112.05,213l11.07,11.34ZM126.9,85.58,115.56,74.24,50,139.85l11.34,11.34ZM218.7,84,207.36,72.62,67,213,78.3,224.36Z"/></svg>