<svg id="Layer_1" data-name="Layer 1" xmlns="http://www.w3.org/2000/svg" viewBox="0 0 1008 260"><title>modem_logo</title><path d="M928.59,105.83c-10.26-5.94-19.17-5.94-26.19-1.89l-10.8,6.21c-1.35-10.53-6.75-29.7-29.43-42.66-10.26-5.94-19.17-5.94-25.92-1.89L826,71.54V48.86l-11.34-6.48-57,33.21-.27,111.51,11.34,6.48,55.08-32.13-.27,64,11.34,6.48L890,199.79v63.72L901.05,270l57.24-32.94.27-81.54c0-4.32-.27-32.4-30-49.68M690.32,208.7H639l-21.33-40.77,94.23-.27Zm-51-101.79h51.3l23.49,44.82-98.55.27ZM700,91H629.57l-35.1,67,35.1,66.69H700l35.1-67ZM447.3,130.67H431.37v48.6H447.3Zm127.71,0H559.08v48.6H575Zm-95.85-32.4H463.23v113.4h15.93ZM511,84H495.09V225.71H511ZM543.15,35.9H527V211.67h16.2ZM299.21,156.05c0-33.21,21.6-55.89,47.79-55.89s47.79,22.68,47.79,55.89-21.6,55.62-47.79,55.62-47.79-22.41-47.79-55.62m-16.47,0c0,42.12,29.16,70.74,64.53,70.74,34.83,0,64-28.62,64-70.74s-29.16-71-64-71c-35.37,0-64.53,28.89-64.53,71M142.85,116.9v108h15.93l77.49-108v108H252.2V89.09H236.27L158.78,197.63V89.09H142.85L65.36,197.63V89.09H49.43V224.9H65.36Z"/></svg>