<svg id="Layer_1" data-name="Layer 1" xmlns="http://www.w3.org/2000/svg" viewBox="0 0 1008 260"><title>modem_logo</title><path d="M767.23,171.17l77.49.27v53.19h15.93V104.75h77.49V224.63h15.93V88.82H844.72v66.69l-93.42-.27v69.39h15.93ZM642.82,229a8.3,8.3,0,0,0,8.1-8.1,8.07,8.07,0,0,0-8.1-7.83,7.84,7.84,0,0,0-7.83,7.83,8.07,8.07,0,0,0,7.83,8.1m43.2,0a8.3,8.3,0,0,0,8.1-8.1A8.07,8.07,0,0,0,686,213a7.84,7.84,0,0,0-7.83,7.83A8.07,8.07,0,0,0,686,229m21.6-10.8a8.3,8.3,0,0,0,8.1-8.1,8.07,8.07,0,0,0-8.1-7.83,7.84,7.84,0,0,0-7.83,7.83,8.07,8.07,0,0,0,7.83,8.1m-86.4,0a8.3,8.3,0,0,0,8.1-8.1,8.07,8.07,0,0,0-8.1-7.83,7.84,7.84,0,0,0-7.83,7.83,8.07,8.07,0,0,0,7.83,8.1m43.2,0a8.3,8.3,0,0,0,8.1-8.1,8.07,8.07,0,0,0-8.1-7.83,7.84,7.84,0,0,0-7.83,7.83,8.07,8.07,0,0,0,7.83,8.1m21.6-10.8a8.3,8.3,0,0,0,8.1-8.1,8.07,8.07,0,0,0-8.1-7.83,7.84,7.84,0,0,0-7.83,7.83,8.07,8.07,0,0,0,7.83,8.1m-43.2,0a8.3,8.3,0,0,0,8.1-8.1,8.07,8.07,0,0,0-8.1-7.83,7.84,7.84,0,0,0-7.83,7.83,8.07,8.07,0,0,0,7.83,8.1m21.6-10.8a8.3,8.3,0,0,0,8.1-8.1,8.07,8.07,0,0,0-8.1-7.83,7.84,7.84,0,0,0-7.83,7.83,8.07,8.07,0,0,0,7.83,8.1m-43.2,0a8.3,8.3,0,0,0,8.1-8.1,8.07,8.07,0,0,0-8.1-7.83,7.84,7.84,0,0,0-7.83,7.83,8.07,8.07,0,0,0,7.83,8.1m-21.6-10.8a8.3,8.3,0,0,0,8.1-8.1,8.07,8.07,0,0,0-8.1-7.83,7.84,7.84,0,0,0-7.83,7.83,8.07,8.07,0,0,0,7.83,8.1m43.2,0a8.3,8.3,0,0,0,8.1-8.1,8.07,8.07,0,0,0-8.1-7.83,7.84,7.84,0,0,0-7.83,7.83,8.07,8.07,0,0,0,7.83,8.1M621.22,175a8.3,8.3,0,0,0,8.1-8.1,8.07,8.07,0,0,0-8.1-7.83,7.84,7.84,0,0,0-7.83,7.83,8.07,8.07,0,0,0,7.83,8.1m-21.6-10.8a8.3,8.3,0,0,0,8.1-8.1,8.07,8.07,0,0,0-8.1-7.83,7.84,7.84,0,0,0-7.83,7.83,8.07,8.07,0,0,0,7.83,8.1m21.6-10.8a8.3,8.3,0,0,0,8.1-8.1,8.07,8.07,0,0,0-8.1-7.83,7.84,7.84,0,0,0-7.83,7.83,8.07,8.07,0,0,0,7.83,8.1m108-10.8a8.3,8.3,0,0,0,8.1-8.1,8.07,8.07,0,0,0-8.1-7.83,7.84,7.84,0,0,0-7.83,7.83,8.07,8.07,0,0,0,7.83,8.1m-86.4,0a8.3,8.3,0,0,0,8.1-8.1,8.07,8.07,0,0,0-8.1-7.83,7.84,7.84,0,0,0-7.83,7.83,8.07,8.07,0,0,0,7.83,8.1m-43.2,0a8.3,8.3,0,0,0,8.1-8.1,8.07,8.07,0,0,0-8.1-7.83,7.84,7.84,0,0,0-7.83,7.83,8.07,8.07,0,0,0,7.83,8.1m86.4,0a8.3,8.3,0,0,0,8.1-8.1,8.07,8.07,0,0,0-8.1-7.83,7.84,7.84,0,0,0-7.83,7.83,8.07,8.07,0,0,0,7.83,8.1m-64.8-10.8a8.3,8.3,0,0,0,8.1-8.1,8.07,8.07,0,0,0-8.1-7.83,7.84,7.84,0,0,0-7.83,7.83,8.07,8.07,0,0,0,7.83,8.1m43.2,0a8.3,8.3,0,0,0,8.1-8.1,8.07,8.07,0,0,0-8.1-7.83,7.84,7.84,0,0,0-7.83,7.83,8.07,8.07,0,0,0,7.83,8.1m43.2,0a8.3,8.3,0,0,0,8.1-8.1,8.07,8.07,0,0,0-8.1-7.83,7.84,7.84,0,0,0-7.83,7.83,8.07,8.07,0,0,0,7.83,8.1M686,121a8.3,8.3,0,0,0,8.1-8.1A8.07,8.07,0,0,0,686,105a7.84,7.84,0,0,0-7.83,7.83A8.07,8.07,0,0,0,686,121m-43.2,0a8.3,8.3,0,0,0,8.1-8.1,8.07,8.07,0,0,0-8.1-7.83,7.84,7.84,0,0,0-7.83,7.83,8.07,8.07,0,0,0,7.83,8.1m64.8-10.8a8.3,8.3,0,0,0,8.1-8.1,8.07,8.07,0,0,0-8.1-7.83,7.84,7.84,0,0,0-7.83,7.83,8.07,8.07,0,0,0,7.83,8.1m-43.2,0a8.3,8.3,0,0,0,8.1-8.1,8.07,8.07,0,0,0-8.1-7.83,7.84,7.84,0,0,0-7.83,7.83,8.07,8.07,0,0,0,7.83,8.1m-43.2,0a8.3,8.3,0,0,0,8.1-8.1,8.07,8.07,0,0,0-8.1-7.83,7.84,7.84,0,0,0-7.83,7.83,8.07,8.07,0,0,0,7.83,8.1M686,99.35a8.3,8.3,0,0,0,8.1-8.1,8.07,8.07,0,0,0-8.1-7.83,7.84,7.84,0,0,0-7.83,7.83,8.07,8.07,0,0,0,7.83,8.1m-43.2,0a8.3,8.3,0,0,0,8.1-8.1,8.07,8.07,0,0,0-8.1-7.83A7.84,7.84,0,0,0,635,91.25a8.07,8.07,0,0,0,7.83,8.1M456,183.86V127.43l47-27.81,46.17,27.27V184.4l-46.17,27.27ZM549.1,36.71v71.55L502.93,81,440,118.25V193l62.91,37.26L549.1,203v21.33h17V36.71ZM413.3,193.58,402,182.24l-33.75,34,11.07,11.07Zm4.59-49.68-11.07-11.34L322.31,216.8l11.34,11.34Zm-14.31-30.78-11.34-11.07-96.12,96.12,11.34,11.07Zm-26.19-18.9L366.05,83.15l-84.24,84.24,11.07,11.34ZM332.84,94,321.5,82.61l-34.83,34.83L298,128.78Zm-185.49,23v108h15.93l77.49-108v108H256.7V89.09H240.77L163.28,197.63V89.09H147.35L69.86,197.63V89.09H53.93V224.9H69.86Z"/></svg>