<?xml version="1.0" encoding="utf-8"?>
<!-- Generator: Adobe Illustrator 23.0.1, SVG Export Plug-In . SVG Version: 6.00 Build 0)  -->
<svg version="1.1" id="Layer_1" xmlns="http://www.w3.org/2000/svg" xmlns:xlink="http://www.w3.org/1999/xlink" x="0px" y="0px"
	 viewBox="0 0 1008 260" style="enable-background:new 0 0 1008 260;" xml:space="preserve">
<title>modem_logo</title>
<path d="M838.2,232.7c4.4-0.1,8-3.7,7.9-8.1c-0.1-4.4-3.7-8-8.1-7.9c-4.3,0.1-7.8,3.6-7.9,7.9c-0.1,4.4,3.3,8,7.7,8.1
	C837.9,232.7,838,232.7,838.2,232.7 M924.6,232.7c4.4-0.1,8-3.7,7.9-8.1c-0.1-4.4-3.7-8-8.1-7.9c-4.3,0.1-7.8,3.6-7.9,7.9
	c-0.1,4.4,3.3,8,7.7,8.1C924.3,232.7,924.4,232.7,924.6,232.7 M795,232.7c4.4-0.1,8-3.7,7.9-8.1c-0.1-4.4-3.7-8-8.1-7.9
	c-4.3,0.1-7.8,3.6-7.9,7.9c-0.1,4.4,3.3,8,7.7,8.1C794.7,232.7,794.8,232.7,795,232.7 M881.4,232.7c4.4-0.1,8-3.7,7.9-8.1
	c-0.1-4.4-3.7-8-8.1-7.9c-4.3,0.1-7.8,3.6-7.9,7.9c-0.1,4.4,3.3,8,7.7,8.1C881.1,232.7,881.2,232.7,881.4,232.7 M903,221.9
	c4.4-0.1,8-3.7,7.9-8.1c-0.1-4.4-3.7-8-8.1-7.9c-4.3,0.1-7.8,3.6-7.9,7.9c-0.1,4.4,3.3,8,7.7,8.1C902.7,221.9,902.8,221.9,903,221.9
	 M816.6,221.9c4.4-0.1,8-3.7,7.9-8.1c-0.1-4.4-3.7-8-8.1-7.9c-4.3,0.1-7.8,3.6-7.9,7.9c-0.1,4.4,3.3,8,7.7,8.1
	C816.3,221.9,816.4,221.9,816.6,221.9 M859.8,221.9c4.4-0.1,8-3.7,7.9-8.1c-0.1-4.4-3.7-8-8.1-7.9c-4.3,0.1-7.8,3.6-7.9,7.9
	c-0.1,4.4,3.3,8,7.7,8.1C859.5,221.9,859.6,221.9,859.8,221.9 M838.2,211.1c4.4-0.1,8-3.7,7.9-8.1c-0.1-4.4-3.7-8-8.1-7.9
	c-4.3,0.1-7.8,3.6-7.9,7.9c-0.1,4.4,3.3,8,7.7,8.1C837.9,211.1,838,211.1,838.2,211.1 M924.6,211.1c4.4-0.1,8-3.7,7.9-8.1
	c-0.1-4.4-3.7-8-8.1-7.9c-4.3,0.1-7.8,3.6-7.9,7.9c-0.1,4.4,3.3,8,7.7,8.1C924.3,211.1,924.4,211.1,924.6,211.1 M795,211.1
	c4.4-0.1,8-3.7,7.9-8.1c-0.1-4.4-3.7-8-8.1-7.9c-4.3,0.1-7.8,3.6-7.9,7.9c-0.1,4.4,3.3,8,7.7,8.1C794.7,211.1,794.8,211.1,795,211.1
	 M881.4,211.1c4.4-0.1,8-3.7,7.9-8.1c-0.1-4.4-3.7-8-8.1-7.9c-4.3,0.1-7.8,3.6-7.9,7.9c-0.1,4.4,3.3,8,7.7,8.1
	C881.1,211.1,881.2,211.1,881.4,211.1 M816.6,200.3c4.4-0.1,8-3.7,7.9-8.1c-0.1-4.4-3.7-8-8.1-7.9c-4.3,0.1-7.8,3.6-7.9,7.9
	c-0.1,4.4,3.3,8,7.7,8.1C816.3,200.3,816.4,200.3,816.6,200.3 M859.8,200.3c4.4-0.1,8-3.7,7.9-8.1c-0.1-4.4-3.7-8-8.1-7.9
	c-4.3,0.1-7.8,3.6-7.9,7.9c-0.1,4.4,3.3,8,7.7,8.1C859.5,200.3,859.6,200.3,859.8,200.3 M903,200.3c4.4-0.1,8-3.7,7.9-8.1
	c-0.1-4.4-3.7-8-8.1-7.9c-4.3,0.1-7.8,3.6-7.9,7.9c-0.1,4.4,3.3,8,7.7,8.1C902.7,200.3,902.8,200.3,903,200.3 M795,189.5
	c4.4-0.1,8-3.7,7.9-8.1c-0.1-4.4-3.7-8-8.1-7.9c-4.3,0.1-7.8,3.6-7.9,7.9c-0.1,4.4,3.3,8,7.7,8.1C794.7,189.5,794.8,189.5,795,189.5
	 M838.2,189.5c4.4-0.1,8-3.7,7.9-8.1c-0.1-4.4-3.7-8-8.1-7.9c-4.3,0.1-7.8,3.6-7.9,7.9c-0.1,4.4,3.3,8,7.7,8.1
	C837.9,189.5,838,189.5,838.2,189.5 M924.6,189.5c4.4-0.1,8-3.7,7.9-8.1c-0.1-4.4-3.7-8-8.1-7.9c-4.3,0.1-7.8,3.6-7.9,7.9
	c-0.1,4.4,3.3,8,7.7,8.1C924.3,189.5,924.4,189.5,924.6,189.5 M881.4,189.5c4.4-0.1,8-3.7,7.9-8.1c-0.1-4.4-3.7-8-8.1-7.9
	c-4.3,0.1-7.8,3.6-7.9,7.9c-0.1,4.4,3.3,8,7.7,8.1C881.1,189.5,881.2,189.5,881.4,189.5 M816.6,178.7c4.4-0.1,8-3.7,7.9-8.1
	c-0.1-4.4-3.7-8-8.1-7.9c-4.3,0.1-7.8,3.6-7.9,7.9c-0.1,4.4,3.3,8,7.7,8.1C816.3,178.7,816.4,178.7,816.6,178.7 M903,178.7
	c4.4-0.1,8-3.7,7.9-8.1c-0.1-4.4-3.7-8-8.1-7.9c-4.3,0.1-7.8,3.6-7.9,7.9c-0.1,4.4,3.3,8,7.7,8.1C902.7,178.7,902.8,178.7,903,178.7
	 M859.8,178.7c4.4-0.1,8-3.7,7.9-8.1c-0.1-4.4-3.7-8-8.1-7.9c-4.3,0.1-7.8,3.6-7.9,7.9c-0.1,4.4,3.3,8,7.7,8.1
	C859.5,178.7,859.6,178.7,859.8,178.7 M838.2,167.9c4.4-0.1,8-3.7,7.9-8.1c-0.1-4.4-3.7-8-8.1-7.9c-4.3,0.1-7.8,3.6-7.9,7.9
	c-0.1,4.4,3.3,8,7.7,8.1C837.9,167.9,838,167.9,838.2,167.9 M881.4,167.9c4.4-0.1,8-3.7,7.9-8.1c-0.1-4.4-3.7-8-8.1-7.9
	c-4.3,0.1-7.8,3.6-7.9,7.9c-0.1,4.4,3.3,8,7.7,8.1C881.1,167.9,881.2,167.9,881.4,167.9 M924.6,167.9c4.4-0.1,8-3.7,7.9-8.1
	c-0.1-4.4-3.7-8-8.1-7.9c-4.3,0.1-7.8,3.6-7.9,7.9c-0.1,4.4,3.3,8,7.7,8.1C924.3,167.9,924.4,167.9,924.6,167.9 M795,167.9
	c4.4-0.1,8-3.7,7.9-8.1c-0.1-4.4-3.7-8-8.1-7.9c-4.3,0.1-7.8,3.6-7.9,7.9c-0.1,4.4,3.3,8,7.7,8.1C794.7,167.9,794.8,167.9,795,167.9
	 M816.6,157.1c4.4-0.1,8-3.7,7.9-8.1c-0.1-4.4-3.7-8-8.1-7.9c-4.3,0.1-7.8,3.6-7.9,7.9c-0.1,4.4,3.3,8,7.7,8.1
	C816.3,157.1,816.4,157.1,816.6,157.1 M903,157.1c4.4-0.1,8-3.7,7.9-8.1c-0.1-4.4-3.7-8-8.1-7.9c-4.3,0.1-7.8,3.6-7.9,7.9
	c-0.1,4.4,3.3,8,7.7,8.1C902.7,157.1,902.8,157.1,903,157.1 M859.8,157.1c4.4-0.1,8-3.7,7.9-8.1c-0.1-4.4-3.7-8-8.1-7.9
	c-4.3,0.1-7.8,3.6-7.9,7.9c-0.1,4.4,3.3,8,7.7,8.1C859.5,157.1,859.6,157.1,859.8,157.1 M795,146.3c4.4-0.1,8-3.7,7.9-8.1
	c-0.1-4.4-3.7-8-8.1-7.9c-4.3,0.1-7.8,3.6-7.9,7.9c-0.1,4.4,3.3,8,7.7,8.1C794.7,146.3,794.9,146.3,795,146.3 M924.6,146.3
	c4.4-0.1,8-3.7,7.9-8.1c-0.1-4.4-3.7-8-8.1-7.9c-4.3,0.1-7.8,3.6-7.9,7.9c-0.1,4.4,3.3,8,7.7,8.1
	C924.3,146.3,924.5,146.3,924.6,146.3 M838.2,146.3c4.4-0.1,8-3.7,7.9-8.1c-0.1-4.4-3.7-8-8.1-7.9c-4.3,0.1-7.8,3.6-7.9,7.9
	c-0.1,4.4,3.3,8,7.7,8.1C837.9,146.3,838.1,146.3,838.2,146.3 M881.4,146.3c4.4-0.1,8-3.7,7.9-8.1c-0.1-4.4-3.7-8-8.1-7.9
	c-4.3,0.1-7.8,3.6-7.9,7.9c-0.1,4.4,3.3,8,7.7,8.1C881.1,146.3,881.3,146.3,881.4,146.3 M903,135.5c4.4-0.1,8-3.7,7.9-8.1
	c-0.1-4.4-3.7-8-8.1-7.9c-4.3,0.1-7.8,3.6-7.9,7.9c-0.1,4.4,3.3,8,7.7,8.1C902.7,135.5,902.9,135.5,903,135.5 M859.8,135.5
	c4.4-0.1,8-3.7,7.9-8.1c-0.1-4.4-3.7-8-8.1-7.9c-4.3,0.1-7.8,3.6-7.9,7.9c-0.1,4.4,3.3,8,7.7,8.1
	C859.5,135.5,859.7,135.5,859.8,135.5 M816.6,135.5c4.4-0.1,8-3.7,7.9-8.1c-0.1-4.4-3.7-8-8.1-7.9c-4.3,0.1-7.8,3.6-7.9,7.9
	c-0.1,4.4,3.3,8,7.7,8.1C816.3,135.5,816.5,135.5,816.6,135.5 M881.4,124.7c4.4-0.1,8-3.7,7.9-8.1c-0.1-4.4-3.7-8-8.1-7.9
	c-4.3,0.1-7.8,3.6-7.9,7.9c-0.1,4.4,3.3,8,7.7,8.1C881.1,124.7,881.3,124.7,881.4,124.7 M924.6,124.7c4.4-0.1,8-3.7,7.9-8.1
	c-0.1-4.4-3.7-8-8.1-7.9c-4.3,0.1-7.8,3.6-7.9,7.9c-0.1,4.4,3.3,8,7.7,8.1C924.3,124.7,924.5,124.7,924.6,124.7 M838.2,124.7
	c4.4-0.1,8-3.7,7.9-8.1c-0.1-4.4-3.7-8-8.1-7.9c-4.3,0.1-7.8,3.6-7.9,7.9c-0.1,4.4,3.3,8,7.7,8.1
	C837.9,124.7,838.1,124.7,838.2,124.7 M795,124.7c4.4-0.1,8-3.7,7.9-8.1c-0.1-4.4-3.7-8-8.1-7.9c-4.3,0.1-7.8,3.6-7.9,7.9
	c-0.1,4.4,3.3,8,7.7,8.1C794.7,124.7,794.9,124.7,795,124.7 M903,113.9c4.4-0.1,8-3.7,7.9-8.1c-0.1-4.4-3.7-8-8.1-7.9
	c-4.3,0.1-7.8,3.6-7.9,7.9c-0.1,4.4,3.3,8,7.7,8.1C902.7,113.9,902.9,113.9,903,113.9 M816.6,113.9c4.4-0.1,8-3.7,7.9-8.1
	c-0.1-4.4-3.7-8-8.1-7.9c-4.3,0.1-7.8,3.6-7.9,7.9c-0.1,4.4,3.3,8,7.7,8.1C816.3,113.9,816.5,113.9,816.6,113.9 M795,103.1
	c4.4-0.1,8-3.7,7.9-8.1c-0.1-4.4-3.7-8-8.1-7.9c-4.3,0.1-7.8,3.6-7.9,7.9c-0.1,4.4,3.3,8,7.7,8.1C794.7,103.1,794.9,103.1,795,103.1
	 M838.2,103.1c4.4-0.1,8-3.7,7.9-8.1c-0.1-4.4-3.7-8-8.1-7.9c-4.3,0.1-7.8,3.6-7.9,7.9c-0.1,4.4,3.3,8,7.7,8.1
	C837.9,103.1,838.1,103.1,838.2,103.1 M924.6,103.1c4.4-0.1,8-3.7,7.9-8.1c-0.1-4.4-3.7-8-8.1-7.9c-4.3,0.1-7.8,3.6-7.9,7.9
	c-0.1,4.4,3.3,8,7.7,8.1C924.3,103.1,924.5,103.1,924.6,103.1 M881.4,103.1c4.4-0.1,8-3.7,7.9-8.1c-0.1-4.4-3.7-8-8.1-7.9
	c-4.3,0.1-7.8,3.6-7.9,7.9c-0.1,4.4,3.3,8,7.7,8.1C881.1,103.1,881.3,103.1,881.4,103.1 M816.6,92.3c4.4-0.1,8-3.7,7.9-8.1
	c-0.1-4.4-3.7-8-8.1-7.9c-4.3,0.1-7.8,3.6-7.9,7.9c-0.1,4.4,3.3,8,7.7,8.1C816.3,92.3,816.5,92.3,816.6,92.3 M903,92.3
	c4.4-0.1,8-3.7,7.9-8.1c-0.1-4.4-3.7-8-8.1-7.9c-4.3,0.1-7.8,3.6-7.9,7.9c-0.1,4.4,3.3,8,7.7,8.1C902.7,92.3,902.9,92.3,903,92.3
	 M633.6,105.3h92.9v38.9h-92.9L633.6,105.3z M742.4,209H633.6v-48.9h108.8V89.4H617.7v135.5h124.7V209z M478.3,185.5l-6.2-37.5
	l17-32.1l30.2-12.2l30.2,12.2l16.5,31.3l-5.7,38.3L535.3,209h-31.9L478.3,185.5z M566,202v23h17V37.2h-17v75.6l-5.1-9.7l-41.6-16.7
	l-41.6,16.7l-22.1,42.1l7.6,48.3l34,31.3h44.3L566,202z M356.3,198.5l-29.2-42.7l29.2-42.7V198.5z M372.2,198.5v-85.4l29.2,42.7
	L372.2,198.5z M364.9,232.2h1.1c0.3,0,0.3-0.3,0.5-0.3s0.5,0,0.5-0.3h0.5c0-0.1,0.1-0.3,0.2-0.3c0,0,0,0,0,0c0.2,0,0.4-0.1,0.5-0.3
	c0.1,0,0.3-0.1,0.3-0.2c0,0,0,0,0,0h0.3c0-0.1,0.1-0.3,0.2-0.3c0,0,0,0,0,0l1.4-1.3V229h0.3l47-68.9c1.6-2.7,1.6-6.2,0-8.9l-47-68.3
	c-0.1,0-0.3-0.1-0.3-0.2c0,0,0,0,0,0l-0.3-0.3c0-0.1-0.1-0.3-0.2-0.3c0,0,0,0,0,0l-0.5-0.5c0-0.1-0.1-0.3-0.2-0.3c0,0,0,0,0,0
	L369,81h-0.3c0-0.1-0.1-0.3-0.2-0.3c0,0,0,0,0,0c-0.1,0-0.3-0.1-0.3-0.2c0,0,0,0,0,0h-0.3l-0.3-0.3h-0.3c-0.1,0-0.3-0.1-0.3-0.2
	c0,0,0,0,0,0h-0.5c-0.3,0-0.3-0.3-0.5-0.3h-3.5c-0.3,0-0.3,0.3-0.5,0.3h-0.5c0,0.1-0.1,0.3-0.2,0.3c0,0,0,0,0,0h-0.3l-0.3,0.3h-0.3
	c0,0.1-0.1,0.3-0.2,0.3c0,0,0,0,0,0c-0.1,0-0.3,0.1-0.3,0.2c0,0,0,0,0,0h-0.3l-0.3,0.3c-0.1,0-0.3,0.1-0.3,0.2c0,0,0,0,0,0l-0.5,0.5
	c-0.1,0-0.3,0.1-0.3,0.2c0,0,0,0,0,0l-0.3,0.3c0,0.1-0.1,0.3-0.2,0.3c0,0,0,0,0,0l-47,68.3c-1.6,2.7-1.6,6.2,0,8.9l47,68.9h0.3v0.3
	l0.8,0.8c0,0,0.8,0.6,0.8,0.8c0,0,0,0,0,0h0.3c0,0.1,0.1,0.3,0.2,0.3c0,0,0,0,0,0c0.1,0.2,0.3,0.3,0.5,0.3c0.1,0,0.3,0.1,0.3,0.2
	c0,0,0,0,0,0h0.5c0,0.3,0.3,0.3,0.5,0.3s0.3,0.3,0.5,0.3h1.1c0.2,0,0.4,0.1,0.5,0.3h0.3C364.6,232.3,364.7,232.2,364.9,232.2
	 M91.5,139.9l0.3,0.3l77.2-34v118.2h16v-84.2l77.5-34v118.2h15.9V88.5h-16.2L185,122.8V88.5h-16l-77.5,34.3V88.5H75.6v135.8h15.9
	V139.9z"/>
</svg>
