<svg id="Layer_1" data-name="Layer 1" xmlns="http://www.w3.org/2000/svg" viewBox="0 0 1008 260"><title>modem_logo</title><path d="M946.42,198.44l-29.17-42.39,29.17-42.66Zm-170.92,0v-85l29.17,42.66Zm93.42,0v-85l29.16,42.66Zm-15.92,0-29.17-42.39L853,113.39Zm103.67,33.48a7.78,7.78,0,0,0,5.67-7.56V87.47a7.78,7.78,0,0,0-5.67-7.56,8.08,8.08,0,0,0-8.91,3l-40.22,58.86-40-58.86a.27.27,0,0,1-.28-.27l-.26-.27a.27.27,0,0,0-.28-.27V81.8h-.26l-.28-.27a.26.26,0,0,0-.26-.27.27.27,0,0,1-.28-.27h-.26a.27.27,0,0,0-.28-.27.26.26,0,0,1-.26-.27h-.28l-.27-.27h-.27a.26.26,0,0,1-.27-.27h-.54c-.26,0-.26-.27-.54-.27h-3.5c-.28,0-.28.27-.54.27h-.55a.26.26,0,0,1-.27.27h-.27l-.27.27H857a.26.26,0,0,1-.26.27.27.27,0,0,0-.28.27h-.26a.27.27,0,0,1-.28.27.26.26,0,0,0-.26.27l-.28.27h-.26v.27a.27.27,0,0,0-.28.27l-.26.27a.27.27,0,0,1-.28.27l-40.22,58.86-40-58.86a8.08,8.08,0,0,0-8.91-3,7.78,7.78,0,0,0-5.67,7.56V224.36a7.78,7.78,0,0,0,5.67,7.56,8.08,8.08,0,0,0,8.91-3l40-58.86L854.34,229h.28v.27l.8.81a.27.27,0,0,0,.28.27.26.26,0,0,0,.26.27.27.27,0,0,1,.28.27h.26a.27.27,0,0,0,.28.27.8.8,0,0,0,.53.27.26.26,0,0,1,.27.27h.54c0,.27.27.27.55.27s.26.27.54.27h1.34c.28,0,.28.27.54.27v-.27H863a.26.26,0,0,1,.26-.27h.54a.26.26,0,0,1,.27-.27h.27l.27-.27h.28a.26.26,0,0,1,.26-.27.27.27,0,0,0,.28-.27h.26a.27.27,0,0,1,.28-.27.26.26,0,0,0,.26-.27l.28-.27h.26v-.27a.27.27,0,0,0,.28-.27l.26-.27a.27.27,0,0,1,.28-.27l40-58.86L947.76,229a8.44,8.44,0,0,0,6.75,3.51,8.25,8.25,0,0,0,2.16-.54M664,101.51l31.86,46.17H632.14Zm4.59,129.33a7.81,7.81,0,0,0,1.89-11.07l-38.34-56.16H711a7.78,7.78,0,0,0,7-4.32,7.93,7.93,0,0,0-.54-8.1l-47-68.31a8.1,8.1,0,0,0-13,0l-47,68a9.1,9.1,0,0,0-1.35,4.59,7.72,7.72,0,0,0,1.35,4.59l47,68.85a8,8,0,0,0,6.48,3.51,7.33,7.33,0,0,0,4.59-1.62M548.71,158.21c-.81,31.59-17.82,53.46-46.71,53.46-25.92,0-46.17-24.57-46.17-55.62,0-31.32,20.25-55.89,46.17-55.89,29.7,0,46.71,22.68,46.71,55.62Zm15.93-121.5H548.71v76.14h-1.62C534.94,95.57,519,85,500.92,85c-34.29,0-61.56,31.86-61.56,71,0,38.88,27.27,70.74,61.56,70.74,18.09,0,34-8.91,46.17-26.19h1.62v24h15.93ZM368.57,229a8.07,8.07,0,0,0,7.83-8.1,8,8,0,0,0-15.93,0,8.12,8.12,0,0,0,8.1,8.1m-43.2,0a8.07,8.07,0,0,0,7.83-8.1,8,8,0,0,0-15.93,0,8.12,8.12,0,0,0,8.1,8.1m-21.6-10.8a8.07,8.07,0,0,0,7.83-8.1,8,8,0,0,0-15.93,0,8.12,8.12,0,0,0,8.1,8.1m86.4,0a8.07,8.07,0,0,0,7.83-8.1,8,8,0,0,0-15.93,0,8.12,8.12,0,0,0,8.1,8.1m-43.2,0a8.07,8.07,0,0,0,7.83-8.1,8,8,0,0,0-15.93,0,8.12,8.12,0,0,0,8.1,8.1m-21.6-10.8a8.07,8.07,0,0,0,7.83-8.1,8,8,0,0,0-15.93,0,8.12,8.12,0,0,0,8.1,8.1m43.2,0a8.07,8.07,0,0,0,7.83-8.1,8,8,0,0,0-15.93,0,8.12,8.12,0,0,0,8.1,8.1m21.6-10.8a8.07,8.07,0,0,0,7.83-8.1,8,8,0,0,0-15.93,0,8.12,8.12,0,0,0,8.1,8.1m-43.2,0a8.07,8.07,0,0,0,7.83-8.1,8,8,0,0,0-15.93,0,8.12,8.12,0,0,0,8.1,8.1m-43.2,0a8.07,8.07,0,0,0,7.83-8.1,8,8,0,0,0-15.93,0,8.12,8.12,0,0,0,8.1,8.1m64.8-10.8a8.07,8.07,0,0,0,7.83-8.1,8,8,0,0,0-15.93,0,8.12,8.12,0,0,0,8.1,8.1m43.2,0a8.07,8.07,0,0,0,7.83-8.1,8,8,0,0,0-15.93,0,8.12,8.12,0,0,0,8.1,8.1m-129.6,0a8.07,8.07,0,0,0,7.83-8.1,8,8,0,0,0-15.93,0,8.12,8.12,0,0,0,8.1,8.1m43.2,0a8.07,8.07,0,0,0,7.83-8.1,8,8,0,0,0-15.93,0,8.12,8.12,0,0,0,8.1,8.1m64.8-10.8a8.07,8.07,0,0,0,7.83-8.1,8,8,0,0,0-15.93,0,8.12,8.12,0,0,0,8.1,8.1M347,175a8.07,8.07,0,0,0,7.83-8.1,8,8,0,0,0-15.93,0A8.12,8.12,0,0,0,347,175m-43.2,0a8.07,8.07,0,0,0,7.83-8.1,8,8,0,0,0-15.93,0,8.12,8.12,0,0,0,8.1,8.1m64.8-10.8a8.07,8.07,0,0,0,7.83-8.1,8,8,0,0,0-15.93,0,8.12,8.12,0,0,0,8.1,8.1m-86.4,0a8.07,8.07,0,0,0,7.83-8.1,8,8,0,0,0-15.93,0,8.12,8.12,0,0,0,8.1,8.1m43.2,0a8.07,8.07,0,0,0,7.83-8.1,8,8,0,0,0-15.93,0,8.12,8.12,0,0,0,8.1,8.1m86.4,0a8.07,8.07,0,0,0,7.83-8.1,8,8,0,0,0-15.93,0,8.12,8.12,0,0,0,8.1,8.1m-21.6-10.8a8.07,8.07,0,0,0,7.83-8.1,8,8,0,0,0-15.93,0,8.12,8.12,0,0,0,8.1,8.1m-43.2,0a8.07,8.07,0,0,0,7.83-8.1,8,8,0,0,0-15.93,0,8.12,8.12,0,0,0,8.1,8.1m-43.2,0a8.07,8.07,0,0,0,7.83-8.1,8,8,0,0,0-15.93,0,8.12,8.12,0,0,0,8.1,8.1m108-10.8a8.07,8.07,0,0,0,7.83-8.1,8,8,0,0,0-15.93,0,8.12,8.12,0,0,0,8.1,8.1m-86.4,0a8.07,8.07,0,0,0,7.83-8.1,8,8,0,0,0-15.93,0,8.12,8.12,0,0,0,8.1,8.1m-43.2,0a8.07,8.07,0,0,0,7.83-8.1,8,8,0,0,0-15.93,0,8.12,8.12,0,0,0,8.1,8.1m86.4,0a8.07,8.07,0,0,0,7.83-8.1,8,8,0,0,0-15.93,0,8.12,8.12,0,0,0,8.1,8.1m21.6-10.8a8.07,8.07,0,0,0,7.83-8.1,8,8,0,0,0-15.93,0,8.12,8.12,0,0,0,8.1,8.1m-43.2,0a8.07,8.07,0,0,0,7.83-8.1,8,8,0,0,0-15.93,0,8.12,8.12,0,0,0,8.1,8.1m-43.2,0a8.07,8.07,0,0,0,7.83-8.1,8,8,0,0,0-15.93,0,8.12,8.12,0,0,0,8.1,8.1m21.6-10.8a8.07,8.07,0,0,0,7.83-8.1,8,8,0,0,0-15.93,0,8.12,8.12,0,0,0,8.1,8.1m43.2,0a8.07,8.07,0,0,0,7.83-8.1,8,8,0,0,0-15.93,0,8.12,8.12,0,0,0,8.1,8.1m-64.8-10.8a8.07,8.07,0,0,0,7.83-8.1,8,8,0,0,0-15.93,0,8.12,8.12,0,0,0,8.1,8.1m43.2,0a8.07,8.07,0,0,0,7.83-8.1,8,8,0,0,0-15.93,0,8.12,8.12,0,0,0,8.1,8.1m43.2,0a8.07,8.07,0,0,0,7.83-8.1,8,8,0,0,0-15.93,0,8.12,8.12,0,0,0,8.1,8.1m-64.8-10.8a8.07,8.07,0,0,0,7.83-8.1,8,8,0,0,0-15.93,0,8.12,8.12,0,0,0,8.1,8.1m43.2,0a8.07,8.07,0,0,0,7.83-8.1,8,8,0,0,0-15.93,0,8.12,8.12,0,0,0,8.1,8.1m-307,71.82,77.5.27v53.19H155V104.75h77.5V224.63h15.92V88.82H139.08v66.69l-93.42-.27v69.39H61.58Z"/></svg>