<svg id="Layer_1" data-name="Layer 1" xmlns="http://www.w3.org/2000/svg" viewBox="0 0 1008 260"><title>modem_logo</title><path d="M838.58,232.73a8,8,0,1,0-8.1-8.1,7.9,7.9,0,0,0,8.1,8.1m86.4,0a8,8,0,1,0-8.1-8.1,7.9,7.9,0,0,0,8.1,8.1m-129.6,0a8,8,0,1,0-8.1-8.1,7.9,7.9,0,0,0,8.1,8.1m86.4,0a8,8,0,1,0-8.1-8.1,7.9,7.9,0,0,0,8.1,8.1m21.6-10.8a8,8,0,1,0-8.1-8.1,7.9,7.9,0,0,0,8.1,8.1m-86.4,0a8,8,0,1,0-8.1-8.1,7.9,7.9,0,0,0,8.1,8.1m43.2,0a8,8,0,1,0-8.1-8.1,7.9,7.9,0,0,0,8.1,8.1m-21.6-10.8a8,8,0,1,0-8.1-8.1,7.9,7.9,0,0,0,8.1,8.1m86.4,0a8,8,0,1,0-8.1-8.1,7.9,7.9,0,0,0,8.1,8.1m-129.6,0a8,8,0,1,0-8.1-8.1,7.9,7.9,0,0,0,8.1,8.1m86.4,0a8,8,0,1,0-8.1-8.1,7.9,7.9,0,0,0,8.1,8.1M817,200.33a8,8,0,1,0-8.1-8.1,7.9,7.9,0,0,0,8.1,8.1m43.2,0a8,8,0,1,0-8.1-8.1,7.9,7.9,0,0,0,8.1,8.1m43.2,0a8,8,0,1,0-8.1-8.1,7.9,7.9,0,0,0,8.1,8.1m-108-10.8a8,8,0,1,0-8.1-8.1,7.9,7.9,0,0,0,8.1,8.1m43.2,0a8,8,0,1,0-8.1-8.1,7.9,7.9,0,0,0,8.1,8.1m86.4,0a8,8,0,1,0-8.1-8.1,7.9,7.9,0,0,0,8.1,8.1m-43.2,0a8,8,0,1,0-8.1-8.1,7.9,7.9,0,0,0,8.1,8.1M817,178.73a8,8,0,1,0-8.1-8.1,7.9,7.9,0,0,0,8.1,8.1m86.4,0a8,8,0,1,0-8.1-8.1,7.9,7.9,0,0,0,8.1,8.1m-43.2,0a8,8,0,1,0-8.1-8.1,7.9,7.9,0,0,0,8.1,8.1m-21.6-10.8a8,8,0,1,0-8.1-8.1,7.9,7.9,0,0,0,8.1,8.1m43.2,0a8,8,0,1,0-8.1-8.1,7.9,7.9,0,0,0,8.1,8.1m43.2,0a8,8,0,1,0-8.1-8.1,7.9,7.9,0,0,0,8.1,8.1m-129.6,0a8,8,0,1,0-8.1-8.1,7.9,7.9,0,0,0,8.1,8.1m21.6-10.8a8,8,0,1,0-8.1-8.1,7.9,7.9,0,0,0,8.1,8.1m86.4,0a8,8,0,1,0-8.1-8.1,7.9,7.9,0,0,0,8.1,8.1m-43.2,0a8,8,0,1,0-8.1-8.1,7.9,7.9,0,0,0,8.1,8.1m-64.8-10.8a8,8,0,1,0-8.1-8.1,7.9,7.9,0,0,0,8.1,8.1m129.6,0a8,8,0,1,0-8.1-8.1,7.9,7.9,0,0,0,8.1,8.1m-86.4,0a8,8,0,1,0-8.1-8.1,7.9,7.9,0,0,0,8.1,8.1m43.2,0a8,8,0,1,0-8.1-8.1,7.9,7.9,0,0,0,8.1,8.1m21.6-10.8a8,8,0,1,0-8.1-8.1,7.9,7.9,0,0,0,8.1,8.1m-43.2,0a8,8,0,1,0-8.1-8.1,7.9,7.9,0,0,0,8.1,8.1m-43.2,0a8,8,0,1,0-8.1-8.1,7.9,7.9,0,0,0,8.1,8.1m64.8-10.8a8,8,0,1,0-8.1-8.1,7.9,7.9,0,0,0,8.1,8.1m43.2,0a8,8,0,1,0-8.1-8.1,7.9,7.9,0,0,0,8.1,8.1m-86.4,0a8,8,0,1,0-8.1-8.1,7.9,7.9,0,0,0,8.1,8.1m-43.2,0a8,8,0,1,0-8.1-8.1,7.9,7.9,0,0,0,8.1,8.1m108-10.8a8,8,0,1,0-8.1-8.1,7.9,7.9,0,0,0,8.1,8.1m-86.4,0a8,8,0,1,0-8.1-8.1,7.9,7.9,0,0,0,8.1,8.1m-21.6-10.8a8,8,0,1,0-8.1-8.1,7.9,7.9,0,0,0,8.1,8.1m43.2,0a8,8,0,1,0-8.1-8.1,7.9,7.9,0,0,0,8.1,8.1m86.4,0a8,8,0,1,0-8.1-8.1,7.9,7.9,0,0,0,8.1,8.1m-43.2,0a8,8,0,1,0-8.1-8.1,7.9,7.9,0,0,0,8.1,8.1M817,92.33a8,8,0,1,0-8.1-8.1,7.9,7.9,0,0,0,8.1,8.1m86.4,0a8,8,0,1,0-8.1-8.1,7.9,7.9,0,0,0,8.1,8.1M629.79,162h96.66V208.7H629.79Zm96.66-15.93H629.79V104.75h96.66ZM613.86,224.63H742.38V88.82H613.86ZM477.22,184.4V105h73.44ZM570.1,37V89.09H461.29V224.9L587.11,89.09V37ZM434.56,193.58l-11.34-11.34-33.75,34,11.07,11.07Zm4.59-49.68-11.07-11.34L343.57,216.8l11.34,11.34Zm-14.31-30.78L413.5,102.05l-96.12,96.12,11.34,11.07Zm-26.19-18.9L387.31,83.15l-84.24,84.24,11.07,11.34ZM354.1,94,342.76,82.61l-34.83,34.83,11.34,11.34Zm-185.49,23v108h15.93L262,116.9v108H278V89.09H262L184.54,197.63V89.09H168.61L91.12,197.63V89.09H75.19V224.9H91.12Z"/></svg>