<svg id="Layer_1" data-name="Layer 1" xmlns="http://www.w3.org/2000/svg" viewBox="0 0 1008 260"><title>modem_logo</title><path d="M848.23,232.73a8,8,0,1,0-8.1-8.1,7.9,7.9,0,0,0,8.1,8.1m86.4,0a8,8,0,1,0-8.1-8.1,7.9,7.9,0,0,0,8.1,8.1m-129.6,0a8,8,0,1,0-8.1-8.1,7.9,7.9,0,0,0,8.1,8.1m86.4,0a8,8,0,1,0-8.1-8.1,7.9,7.9,0,0,0,8.1,8.1m21.6-10.8a8,8,0,1,0-8.1-8.1,7.9,7.9,0,0,0,8.1,8.1m-86.4,0a8,8,0,1,0-8.1-8.1,7.9,7.9,0,0,0,8.1,8.1m43.2,0a8,8,0,1,0-8.1-8.1,7.9,7.9,0,0,0,8.1,8.1m-21.6-10.8a8,8,0,1,0-8.1-8.1,7.9,7.9,0,0,0,8.1,8.1m86.4,0a8,8,0,1,0-8.1-8.1,7.9,7.9,0,0,0,8.1,8.1m-129.6,0a8,8,0,1,0-8.1-8.1,7.9,7.9,0,0,0,8.1,8.1m86.4,0a8,8,0,1,0-8.1-8.1,7.9,7.9,0,0,0,8.1,8.1m-64.8-10.8a8,8,0,1,0-8.1-8.1,7.9,7.9,0,0,0,8.1,8.1m43.2,0a8,8,0,1,0-8.1-8.1,7.9,7.9,0,0,0,8.1,8.1m43.2,0a8,8,0,1,0-8.1-8.1,7.9,7.9,0,0,0,8.1,8.1m-108-10.8a8,8,0,1,0-8.1-8.1,7.9,7.9,0,0,0,8.1,8.1m43.2,0a8,8,0,1,0-8.1-8.1,7.9,7.9,0,0,0,8.1,8.1m86.4,0a8,8,0,1,0-8.1-8.1,7.9,7.9,0,0,0,8.1,8.1m-43.2,0a8,8,0,1,0-8.1-8.1,7.9,7.9,0,0,0,8.1,8.1m-64.8-10.8a8,8,0,1,0-8.1-8.1,7.9,7.9,0,0,0,8.1,8.1m86.4,0a8,8,0,1,0-8.1-8.1,7.9,7.9,0,0,0,8.1,8.1m-43.2,0a8,8,0,1,0-8.1-8.1,7.9,7.9,0,0,0,8.1,8.1m-21.6-10.8a8,8,0,1,0-8.1-8.1,7.9,7.9,0,0,0,8.1,8.1m43.2,0a8,8,0,1,0-8.1-8.1,7.9,7.9,0,0,0,8.1,8.1m43.2,0a8,8,0,1,0-8.1-8.1,7.9,7.9,0,0,0,8.1,8.1m-129.6,0a8,8,0,1,0-8.1-8.1,7.9,7.9,0,0,0,8.1,8.1m21.6-10.8a8,8,0,1,0-8.1-8.1,7.9,7.9,0,0,0,8.1,8.1m86.4,0a8,8,0,1,0-8.1-8.1,7.9,7.9,0,0,0,8.1,8.1m-43.2,0a8,8,0,1,0-8.1-8.1,7.9,7.9,0,0,0,8.1,8.1M805,146.33a8,8,0,1,0-8.1-8.1,7.9,7.9,0,0,0,8.1,8.1m129.6,0a8,8,0,1,0-8.1-8.1,7.9,7.9,0,0,0,8.1,8.1m-86.4,0a8,8,0,1,0-8.1-8.1,7.9,7.9,0,0,0,8.1,8.1m43.2,0a8,8,0,1,0-8.1-8.1,7.9,7.9,0,0,0,8.1,8.1m21.6-10.8a8,8,0,1,0-8.1-8.1,7.9,7.9,0,0,0,8.1,8.1m-43.2,0a8,8,0,1,0-8.1-8.1,7.9,7.9,0,0,0,8.1,8.1m-43.2,0a8,8,0,1,0-8.1-8.1,7.9,7.9,0,0,0,8.1,8.1m64.8-10.8a8,8,0,1,0-8.1-8.1,7.9,7.9,0,0,0,8.1,8.1m43.2,0a8,8,0,1,0-8.1-8.1,7.9,7.9,0,0,0,8.1,8.1m-86.4,0a8,8,0,1,0-8.1-8.1,7.9,7.9,0,0,0,8.1,8.1m-43.2,0a8,8,0,1,0-8.1-8.1,7.9,7.9,0,0,0,8.1,8.1m108-10.8a8,8,0,1,0-8.1-8.1,7.9,7.9,0,0,0,8.1,8.1m-86.4,0a8,8,0,1,0-8.1-8.1,7.9,7.9,0,0,0,8.1,8.1M805,103.13a8,8,0,1,0-8.1-8.1,7.9,7.9,0,0,0,8.1,8.1m43.2,0a8,8,0,1,0-8.1-8.1,7.9,7.9,0,0,0,8.1,8.1m86.4,0a8,8,0,1,0-8.1-8.1,7.9,7.9,0,0,0,8.1,8.1m-43.2,0a8,8,0,1,0-8.1-8.1,7.9,7.9,0,0,0,8.1,8.1m-64.8-10.8a8,8,0,1,0-8.1-8.1,7.9,7.9,0,0,0,8.1,8.1m86.4,0a8,8,0,1,0-8.1-8.1,7.9,7.9,0,0,0,8.1,8.1M639.44,162H736.1V208.7H639.44Zm96.66-15.93H639.44V104.75H736.1ZM623.51,224.63H752V88.82H623.51ZM479.09,105H571.7V209H479.09ZM572,37V89.09H463.16V224.9L589,224.63V37ZM389,229a8.07,8.07,0,0,0,7.83-8.1,8,8,0,0,0-15.93,0A8.12,8.12,0,0,0,389,229m-43.2,0a8.07,8.07,0,0,0,7.83-8.1,8,8,0,0,0-15.93,0,8.12,8.12,0,0,0,8.1,8.1m-21.6-10.8a8.07,8.07,0,0,0,7.83-8.1,8,8,0,0,0-15.93,0,8.12,8.12,0,0,0,8.1,8.1m86.4,0a8.07,8.07,0,0,0,7.83-8.1,8,8,0,0,0-15.93,0,8.12,8.12,0,0,0,8.1,8.1m-43.2,0a8.07,8.07,0,0,0,7.83-8.1,8,8,0,0,0-15.93,0,8.12,8.12,0,0,0,8.1,8.1m-21.6-10.8a8.07,8.07,0,0,0,7.83-8.1,8,8,0,0,0-15.93,0,8.12,8.12,0,0,0,8.1,8.1m43.2,0a8.07,8.07,0,0,0,7.83-8.1,8,8,0,0,0-15.93,0,8.12,8.12,0,0,0,8.1,8.1m21.6-10.8a8.07,8.07,0,0,0,7.83-8.1,8,8,0,0,0-15.93,0,8.12,8.12,0,0,0,8.1,8.1m-43.2,0a8.07,8.07,0,0,0,7.83-8.1,8,8,0,0,0-15.93,0,8.12,8.12,0,0,0,8.1,8.1m-43.2,0a8.07,8.07,0,0,0,7.83-8.1,8,8,0,0,0-15.93,0,8.12,8.12,0,0,0,8.1,8.1m64.8-10.8a8.07,8.07,0,0,0,7.83-8.1,8,8,0,0,0-15.93,0,8.12,8.12,0,0,0,8.1,8.1m43.2,0a8.07,8.07,0,0,0,7.83-8.1,8,8,0,0,0-15.93,0,8.12,8.12,0,0,0,8.1,8.1m-129.6,0a8.07,8.07,0,0,0,7.83-8.1,8,8,0,0,0-15.93,0,8.12,8.12,0,0,0,8.1,8.1m43.2,0a8.07,8.07,0,0,0,7.83-8.1,8,8,0,0,0-15.93,0,8.12,8.12,0,0,0,8.1,8.1M410.6,175a8.07,8.07,0,0,0,7.83-8.1,8,8,0,0,0-15.93,0,8.12,8.12,0,0,0,8.1,8.1m-43.2,0a8.07,8.07,0,0,0,7.83-8.1,8,8,0,0,0-15.93,0,8.12,8.12,0,0,0,8.1,8.1m-43.2,0a8.07,8.07,0,0,0,7.83-8.1,8,8,0,0,0-15.93,0,8.12,8.12,0,0,0,8.1,8.1m64.8-10.8a8.07,8.07,0,0,0,7.83-8.1,8,8,0,0,0-15.93,0,8.12,8.12,0,0,0,8.1,8.1m-86.4,0a8.07,8.07,0,0,0,7.83-8.1,8,8,0,0,0-15.93,0,8.12,8.12,0,0,0,8.1,8.1m43.2,0a8.07,8.07,0,0,0,7.83-8.1,8,8,0,0,0-15.93,0,8.12,8.12,0,0,0,8.1,8.1m86.4,0a8.07,8.07,0,0,0,7.83-8.1,8,8,0,0,0-15.93,0,8.12,8.12,0,0,0,8.1,8.1m-21.6-10.8a8.07,8.07,0,0,0,7.83-8.1,8,8,0,0,0-15.93,0,8.12,8.12,0,0,0,8.1,8.1m-43.2,0a8.07,8.07,0,0,0,7.83-8.1,8,8,0,0,0-15.93,0,8.12,8.12,0,0,0,8.1,8.1m-43.2,0a8.07,8.07,0,0,0,7.83-8.1,8,8,0,0,0-15.93,0,8.12,8.12,0,0,0,8.1,8.1m108-10.8a8.07,8.07,0,0,0,7.83-8.1,8,8,0,0,0-15.93,0,8.12,8.12,0,0,0,8.1,8.1m-86.4,0a8.07,8.07,0,0,0,7.83-8.1,8,8,0,0,0-15.93,0,8.12,8.12,0,0,0,8.1,8.1m-43.2,0a8.07,8.07,0,0,0,7.83-8.1,8,8,0,0,0-15.93,0,8.12,8.12,0,0,0,8.1,8.1m86.4,0a8.07,8.07,0,0,0,7.83-8.1,8,8,0,0,0-15.93,0,8.12,8.12,0,0,0,8.1,8.1m21.6-10.8a8.07,8.07,0,0,0,7.83-8.1,8,8,0,0,0-15.93,0,8.12,8.12,0,0,0,8.1,8.1m-43.2,0a8.07,8.07,0,0,0,7.83-8.1,8,8,0,0,0-15.93,0,8.12,8.12,0,0,0,8.1,8.1m-43.2,0a8.07,8.07,0,0,0,7.83-8.1,8,8,0,0,0-15.93,0,8.12,8.12,0,0,0,8.1,8.1M345.8,121a8.07,8.07,0,0,0,7.83-8.1,8,8,0,0,0-15.93,0,8.12,8.12,0,0,0,8.1,8.1m43.2,0a8.07,8.07,0,0,0,7.83-8.1,8,8,0,0,0-15.93,0A8.12,8.12,0,0,0,389,121m-64.8-10.8a8.07,8.07,0,0,0,7.83-8.1,8,8,0,0,0-15.93,0,8.12,8.12,0,0,0,8.1,8.1m43.2,0a8.07,8.07,0,0,0,7.83-8.1,8,8,0,0,0-15.93,0,8.12,8.12,0,0,0,8.1,8.1m43.2,0a8.07,8.07,0,0,0,7.83-8.1,8,8,0,0,0-15.93,0,8.12,8.12,0,0,0,8.1,8.1m-64.8-10.8a8.07,8.07,0,0,0,7.83-8.1,8,8,0,0,0-15.93,0,8.12,8.12,0,0,0,8.1,8.1m43.2,0a8.07,8.07,0,0,0,7.83-8.1,8,8,0,0,0-15.93,0,8.12,8.12,0,0,0,8.1,8.1M81.47,139.85l.27.27,77.22-34V224.36h15.93V140.12l77.49-34V224.36h15.93V88.55h-16.2l-77.22,34.29V88.55H159L81.47,122.84V88.55H65.54V224.36H81.47Z"/></svg>