<svg id="Layer_1" data-name="Layer 1" xmlns="http://www.w3.org/2000/svg" viewBox="0 0 1008 260"><title>modem_logo</title><path d="M965.41,100.43H949.48v124.2h15.93Zm-159.57,0H789.91v124.2h15.93Zm95.85,0H885.76v124.2h15.93Zm-31.86,0H853.9v124.2h15.93ZM774,87.74H758.05V224.63H774Zm63.72-4.59H821.77V224.63H837.7Zm95.85,0H917.62V224.63h15.93ZM612.77,162h96.66V208.7H612.77Zm96.66-15.93H612.77V104.75h96.66ZM596.84,224.63H725.36V88.82H596.84Zm-50.46-66.42c-.81,31.59-17.82,53.46-46.71,53.46-25.92,0-46.17-24.57-46.17-55.62,0-31.32,20.25-55.89,46.17-55.89,29.7,0,46.71,22.68,46.71,55.62Zm15.93-121.5H546.38v76.14h-1.62C532.61,95.57,516.68,85,498.59,85,464.3,85,437,116.9,437,156.05c0,38.88,27.27,70.74,61.56,70.74,18.09,0,34-8.91,46.17-26.19h1.62v24h15.93ZM366.24,229a8.07,8.07,0,0,0,7.83-8.1,8,8,0,0,0-15.93,0,8.12,8.12,0,0,0,8.1,8.1M323,229a8.07,8.07,0,0,0,7.83-8.1,8,8,0,0,0-15.93,0A8.12,8.12,0,0,0,323,229m-21.6-10.8a8.07,8.07,0,0,0,7.83-8.1,8,8,0,0,0-15.93,0,8.12,8.12,0,0,0,8.1,8.1m86.4,0a8.07,8.07,0,0,0,7.83-8.1,8,8,0,0,0-15.93,0,8.12,8.12,0,0,0,8.1,8.1m-43.2,0a8.07,8.07,0,0,0,7.83-8.1,8,8,0,0,0-15.93,0,8.12,8.12,0,0,0,8.1,8.1M323,207.35a8.07,8.07,0,0,0,7.83-8.1,8,8,0,0,0-15.93,0,8.12,8.12,0,0,0,8.1,8.1m43.2,0a8.07,8.07,0,0,0,7.83-8.1,8,8,0,0,0-15.93,0,8.12,8.12,0,0,0,8.1,8.1m21.6-10.8a8.07,8.07,0,0,0,7.83-8.1,8,8,0,0,0-15.93,0,8.12,8.12,0,0,0,8.1,8.1m-43.2,0a8.07,8.07,0,0,0,7.83-8.1,8,8,0,0,0-15.93,0,8.12,8.12,0,0,0,8.1,8.1m-43.2,0a8.07,8.07,0,0,0,7.83-8.1,8,8,0,0,0-15.93,0,8.12,8.12,0,0,0,8.1,8.1m64.8-10.8a8.07,8.07,0,0,0,7.83-8.1,8,8,0,0,0-15.93,0,8.12,8.12,0,0,0,8.1,8.1m43.2,0a8.07,8.07,0,0,0,7.83-8.1,8,8,0,0,0-15.93,0,8.12,8.12,0,0,0,8.1,8.1m-129.6,0a8.07,8.07,0,0,0,7.83-8.1,8,8,0,0,0-15.93,0,8.12,8.12,0,0,0,8.1,8.1m43.2,0a8.07,8.07,0,0,0,7.83-8.1,8,8,0,0,0-15.93,0,8.12,8.12,0,0,0,8.1,8.1m64.8-10.8a8.07,8.07,0,0,0,7.83-8.1,8,8,0,0,0-15.93,0,8.12,8.12,0,0,0,8.1,8.1m-43.2,0a8.07,8.07,0,0,0,7.83-8.1,8,8,0,0,0-15.93,0,8.12,8.12,0,0,0,8.1,8.1m-43.2,0a8.07,8.07,0,0,0,7.83-8.1,8,8,0,0,0-15.93,0,8.12,8.12,0,0,0,8.1,8.1m64.8-10.8a8.07,8.07,0,0,0,7.83-8.1,8,8,0,0,0-15.93,0,8.12,8.12,0,0,0,8.1,8.1m-86.4,0a8.07,8.07,0,0,0,7.83-8.1,8,8,0,0,0-15.93,0,8.12,8.12,0,0,0,8.1,8.1m43.2,0a8.07,8.07,0,0,0,7.83-8.1,8,8,0,0,0-15.93,0,8.12,8.12,0,0,0,8.1,8.1m86.4,0a8.07,8.07,0,0,0,7.83-8.1,8,8,0,0,0-15.93,0,8.12,8.12,0,0,0,8.1,8.1m-21.6-10.8a8.07,8.07,0,0,0,7.83-8.1,8,8,0,0,0-15.93,0,8.12,8.12,0,0,0,8.1,8.1m-43.2,0a8.07,8.07,0,0,0,7.83-8.1,8,8,0,0,0-15.93,0,8.12,8.12,0,0,0,8.1,8.1m-43.2,0a8.07,8.07,0,0,0,7.83-8.1,8,8,0,0,0-15.93,0,8.12,8.12,0,0,0,8.1,8.1m108-10.8a8.07,8.07,0,0,0,7.83-8.1,8,8,0,0,0-15.93,0,8.12,8.12,0,0,0,8.1,8.1m-86.4,0a8.07,8.07,0,0,0,7.83-8.1,8,8,0,0,0-15.93,0,8.12,8.12,0,0,0,8.1,8.1m-43.2,0a8.07,8.07,0,0,0,7.83-8.1,8,8,0,0,0-15.93,0,8.12,8.12,0,0,0,8.1,8.1m86.4,0a8.07,8.07,0,0,0,7.83-8.1,8,8,0,0,0-15.93,0,8.12,8.12,0,0,0,8.1,8.1m21.6-10.8a8.07,8.07,0,0,0,7.83-8.1,8,8,0,0,0-15.93,0,8.12,8.12,0,0,0,8.1,8.1m-43.2,0a8.07,8.07,0,0,0,7.83-8.1,8,8,0,0,0-15.93,0,8.12,8.12,0,0,0,8.1,8.1m-43.2,0a8.07,8.07,0,0,0,7.83-8.1,8,8,0,0,0-15.93,0,8.12,8.12,0,0,0,8.1,8.1M323,121a8.07,8.07,0,0,0,7.83-8.1,8,8,0,0,0-15.93,0A8.12,8.12,0,0,0,323,121m43.2,0a8.07,8.07,0,0,0,7.83-8.1,8,8,0,0,0-15.93,0,8.12,8.12,0,0,0,8.1,8.1m-64.8-10.8a8.07,8.07,0,0,0,7.83-8.1,8,8,0,0,0-15.93,0,8.12,8.12,0,0,0,8.1,8.1m43.2,0a8.07,8.07,0,0,0,7.83-8.1,8,8,0,0,0-15.93,0,8.12,8.12,0,0,0,8.1,8.1m43.2,0a8.07,8.07,0,0,0,7.83-8.1,8,8,0,0,0-15.93,0,8.12,8.12,0,0,0,8.1,8.1M323,99.35a8.07,8.07,0,0,0,7.83-8.1,8,8,0,0,0-15.93,0,8.12,8.12,0,0,0,8.1,8.1m43.2,0a8.07,8.07,0,0,0,7.83-8.1,8,8,0,0,0-15.93,0,8.12,8.12,0,0,0,8.1,8.1M58.52,171.17l77.49.27v53.19h15.93V104.75h77.49V224.63h15.93V88.82H136v66.69l-93.42-.27v69.39H58.52Z"/></svg>