<svg id="Layer_1" data-name="Layer 1" xmlns="http://www.w3.org/2000/svg" viewBox="0 0 1008 260"><title>modem_logo</title><path d="M929.09,198.44l-29.16-42.39,29.16-42.66Zm-170.91,0v-85l29.16,42.66Zm93.42,0v-85l29.16,42.66Zm-15.93,0-29.16-42.39,29.16-42.66Zm103.68,33.48a7.78,7.78,0,0,0,5.67-7.56V87.47a7.78,7.78,0,0,0-5.67-7.56,8.08,8.08,0,0,0-8.91,3l-40.23,58.86-40-58.86a.26.26,0,0,1-.27-.27l-.27-.27a.26.26,0,0,0-.27-.27V81.8h-.27l-.27-.27a.26.26,0,0,0-.27-.27.26.26,0,0,1-.27-.27h-.27a.26.26,0,0,0-.27-.27.26.26,0,0,1-.27-.27h-.27l-.27-.27h-.27a.26.26,0,0,1-.27-.27h-.54c-.27,0-.27-.27-.54-.27h-3.51c-.27,0-.27.27-.54.27h-.54a.26.26,0,0,1-.27.27h-.27l-.27.27h-.27a.26.26,0,0,1-.27.27.26.26,0,0,0-.27.27h-.27a.26.26,0,0,1-.27.27.26.26,0,0,0-.27.27l-.27.27h-.27v.27a.26.26,0,0,0-.27.27l-.27.27a.26.26,0,0,1-.27.27l-40.23,58.86-40-58.86a8.08,8.08,0,0,0-8.91-3,7.78,7.78,0,0,0-5.67,7.56V224.36a7.78,7.78,0,0,0,5.67,7.56,8.08,8.08,0,0,0,8.91-3l40-58.86L837,229h.27v.27l.81.81a.26.26,0,0,0,.27.27.26.26,0,0,0,.27.27.26.26,0,0,1,.27.27h.27a.26.26,0,0,0,.27.27.84.84,0,0,0,.54.27.26.26,0,0,1,.27.27h.54c0,.27.27.27.54.27s.27.27.54.27h1.35c.27,0,.27.27.54.27v-.27h1.89a.26.26,0,0,1,.27-.27h.54a.26.26,0,0,1,.27-.27H847l.27-.27h.27a.26.26,0,0,1,.27-.27.26.26,0,0,0,.27-.27h.27a.26.26,0,0,1,.27-.27.26.26,0,0,0,.27-.27l.27-.27h.27v-.27a.26.26,0,0,0,.27-.27l.27-.27a.26.26,0,0,1,.27-.27l40-58.86L930.44,229a8.44,8.44,0,0,0,6.75,3.51,8.35,8.35,0,0,0,2.16-.54M663.69,101.51l31.86,46.17H631.83Zm4.59,129.33a7.81,7.81,0,0,0,1.89-11.07l-38.34-56.16h78.84a7.78,7.78,0,0,0,7-4.32,7.93,7.93,0,0,0-.54-8.1l-47-68.31a8.1,8.1,0,0,0-13,0l-47,68a9.1,9.1,0,0,0-1.35,4.59,7.72,7.72,0,0,0,1.35,4.59l47,68.85a8,8,0,0,0,6.48,3.51,7.33,7.33,0,0,0,4.59-1.62m-106-72.63c-.81,31.59-17.82,53.46-46.71,53.46-25.92,0-46.17-24.57-46.17-55.62,0-31.32,20.25-55.89,46.17-55.89,29.7,0,46.71,22.68,46.71,55.62Zm15.93-121.5H562.25v76.14h-1.62C548.48,95.57,532.55,85,514.46,85c-34.29,0-61.56,31.86-61.56,71,0,38.88,27.27,70.74,61.56,70.74,18.09,0,34-8.91,46.17-26.19h1.62v24h15.93ZM314.61,127.16l48.6-28.08,48.33,28.08v56.43l-48.6,28.08-48.33-28.08ZM298.68,118v74.79L362.94,230l64.53-37.26V118L363.21,80.72ZM78.91,171.17l77.49.27v53.19h15.93V104.75h77.49V224.63h15.93V88.82H156.4v66.69L63,155.24v69.39H78.91Z"/></svg>